<svg width="200" height="200" viewBox="0 0 200 200" fill="none" xmlns="http://www.w3.org/2000/svg">
<path d="M55.4219 78.6211C53.3945 78.6211 51.7539 80.2617 51.7539 82.2891V86.4258C51.7539 88.4492 53.3945 90.0898 55.4219 90.0898C57.4453 90.0898 59.0859 88.4492 59.0859 86.4258V82.2891C59.0859 80.2617 57.4473 78.6211 55.4219 78.6211ZM33.4277 89.5801C31.4043 89.5801 29.7637 91.2207 29.7637 93.2441V97.5801C29.7637 99.6035 31.4043 101.244 33.4277 101.244C35.4551 101.244 37.0957 99.6035 37.0957 97.5801V93.2441C37.0957 91.2187 35.4551 89.5801 33.4277 89.5801ZM143.387 78.6211C141.359 78.6211 139.719 80.2617 139.719 82.2891V86.4258C139.719 88.4492 141.359 90.0898 143.387 90.0898C145.41 90.0898 147.051 88.4492 147.051 86.4258V82.2891C147.051 80.2617 145.412 78.6211 143.387 78.6211ZM165.379 89.5801C163.352 89.5801 161.711 91.2207 161.711 93.2441V97.5801C161.711 99.6035 163.352 101.244 165.379 101.244C167.402 101.244 169.043 99.6035 169.043 97.5801V93.2441C169.043 91.2187 167.402 89.5801 165.379 89.5801Z" fill="#CCD1D9"/>
<path d="M15.1055 128.867C14.133 128.866 13.2006 128.479 12.513 127.792C11.8253 127.104 11.4385 126.172 11.4375 125.199V110.539C11.4375 109.158 12.2168 107.895 13.4453 107.27L83.0859 71.9473C84.8906 71.0312 87.0957 71.752 88.0117 73.5566C88.9277 75.3613 88.2051 77.5664 86.4023 78.4824L84.875 106.949C86.8555 106.539 88.7969 107.811 89.2109 109.793C89.6211 111.773 88.3496 113.715 86.3672 114.129L15.8496 128.789C15.6035 128.84 15.3516 128.867 15.1055 128.867ZM183.703 128.867C183.457 128.867 183.207 128.84 182.957 128.789L112.441 114.129C110.461 113.715 109.188 111.775 109.598 109.793C110.012 107.813 111.951 106.539 113.934 106.949L112.406 78.4824C110.602 77.5664 109.881 75.3613 110.797 73.5566C111.713 71.75 113.918 71.0312 115.727 71.9473L185.365 107.27C186.598 107.895 187.373 109.158 187.373 110.539V125.199C187.373 126.303 186.877 127.346 186.02 128.043C185.365 128.575 184.547 128.866 183.703 128.867Z" fill="#E6E9ED"/>
<path d="M89.0332 140.252C87.8281 139.648 86.3887 139.75 85.2852 140.523L64.3164 155.184C63.8335 155.522 63.4393 155.971 63.1669 156.494C62.8946 157.017 62.7523 157.598 62.752 158.188V172.85C62.752 174.031 63.3203 175.139 64.2812 175.826C64.7544 176.166 65.3017 176.388 65.8777 176.474C66.4538 176.56 67.0421 176.507 67.5937 176.32L89.2031 168.988C89.9458 168.736 90.5881 168.253 91.0356 167.609C91.4831 166.965 91.7123 166.194 91.6895 165.41L91.0488 143.42C91.0098 142.074 90.2344 140.855 89.0332 140.252ZM134.49 155.184L113.521 140.523C112.979 140.144 112.345 139.919 111.685 139.871C111.025 139.824 110.365 139.955 109.773 140.252C109.183 140.549 108.683 141 108.328 141.558C107.973 142.116 107.776 142.759 107.758 143.42L107.115 165.41C107.066 167.02 108.076 168.471 109.602 168.988L131.211 176.32C131.596 176.449 131.992 176.514 132.387 176.514C133.145 176.514 133.893 176.279 134.523 175.826C135.484 175.139 136.053 174.029 136.053 172.85V158.188C136.057 156.992 135.471 155.869 134.49 155.184Z" fill="#4A89DC"/>
<path d="M110.23 176.514H88.2402C86.2598 176.514 84.6387 174.941 84.5781 172.959C84.4277 168.018 80.9102 51.8672 80.9102 44.5664C80.9102 39.9805 82.6465 33.8867 85.3379 29.043C88.9668 22.5098 93.9043 18.9121 99.2344 18.9121C104.568 18.9121 109.506 22.5098 113.133 29.043C115.822 33.8887 117.562 39.9824 117.562 44.5664C117.562 51.8672 114.047 168.018 113.895 172.959C113.836 174.941 112.213 176.514 110.23 176.514Z" fill="#5D9CEC"/>
<path d="M109.996 43.2695C109.836 42.8457 109.18 41.3496 107.492 39.9277C106.031 38.7012 103.414 37.2344 99.2363 37.2344C92.543 37.2344 89.3262 41.0273 88.4766 43.2695C87.7617 45.1641 88.7187 47.2793 90.6113 47.9941C91.0371 48.1543 91.4746 48.2324 91.9043 48.2324C93.332 48.2324 94.6797 47.3926 95.2734 46.0156C95.4023 45.791 96.2422 44.5664 99.2363 44.5664C102.232 44.5664 103.072 45.791 103.201 46.0156C103.973 47.8066 106.023 48.6895 107.865 47.9941C109.756 47.2773 110.711 45.1621 109.996 43.2695Z" fill="#F5F7FA"/>
<path d="M99.2363 180.178C97.2129 180.178 95.5723 178.537 95.5723 176.514V150.857C95.5723 148.834 97.2129 147.189 99.2363 147.189C101.26 147.189 102.904 148.832 102.904 150.857V176.514C102.902 178.537 101.26 180.178 99.2363 180.178Z" fill="#4A89DC"/>
</svg>
