<svg width="262" height="256" viewBox="0 0 262 256" fill="none" xmlns="http://www.w3.org/2000/svg">
<path d="M136.936 84.8549C136.936 73.7141 147.869 66.5322 158.758 68.8924L198.166 78.5369C209.054 80.8971 217.963 91.9459 217.963 103.087L217.963 192.554C217.963 203.694 208.95 214.173 197.934 215.836L158.992 222.488C147.976 224.151 136.938 216.397 136.938 205.257L136.936 84.8549Z" fill="#FFE35F"/>
<path d="M140.48 84.8549C140.48 80.5602 142.076 76.9083 144.975 74.5687C147.874 72.2312 153.808 71.4459 158.007 72.3552L197.323 81.978C206.63 83.9972 214.418 93.653 214.418 103.085L214.418 192.552C214.418 201.878 206.626 210.937 197.404 212.331L158.394 218.991C154.171 219.628 148.13 218.565 145.132 215.985C142.133 213.405 140.482 209.593 140.482 205.255L140.48 84.8549ZM133.391 205.257C133.391 211.694 135.917 217.415 140.508 221.361C145.097 225.308 153.156 226.953 159.521 225.99C159.588 225.98 198.531 219.329 198.531 219.329C211.17 217.419 221.508 205.402 221.508 192.553L221.508 103.086C221.508 90.34 211.373 77.7711 198.917 75.072L159.601 65.4492C153.175 64.0531 145.127 65.3417 140.525 69.0505C135.926 72.7603 133.392 78.3736 133.392 84.8549L133.391 205.257Z" fill="#6E6E96"/>
<path d="M76.0594 32.9806C76.0594 32.9806 76.0842 22.1447 76.1162 17.5658C76.1503 12.9869 80.29 9.27299 85.3235 9.30916L118.85 9.46623L124.107 9.54064C133.898 9.54064 140.074 17.571 142.392 27.7972L150.068 64.5967L150.07 225.512C148.384 230.254 148.076 245.537 128.947 245.537L83.8871 245.813C78.8526 245.856 74.7687 241.775 74.7986 236.744L74.8627 227.503" fill="#FFE35F"/>
<path d="M107.24 22.3834L117.334 22.4568C126.908 22.4568 127.882 30.3083 130.148 40.3073L136.946 72.8957L137.657 233.647C137.076 235.279 136.659 238.192 135.55 241.282C146.73 237.804 147.168 226.645 148.552 222.752L148.549 65.3996L141.042 29.4145C138.775 19.4135 132.735 11.563 123.163 11.563L118.133 11.4885L85.3484 11.3356C80.4274 11.3025 76.3777 14.9328 76.3446 19.4094L76.327 22.2367L107.24 22.3834Z" fill="white"/>
<path d="M126.922 243.514C146.051 243.514 146.359 228.23 148.042 223.489L148.042 62.5723L140.364 25.7729C138.045 15.5466 131.869 7.51731 122.081 7.5173L116.824 7.4429L83.2971 7.28583C78.2636 7.25069 74.1218 10.9667 74.0898 15.5425C74.0598 20.1224 74.0319 30.9573 74.0319 30.9573L72.8363 225.478L72.7712 234.719C72.7633 235.914 72.9932 237.098 73.4475 238.204C73.9017 239.309 74.5713 240.313 75.4171 241.157C76.263 242.001 77.2683 242.668 78.3745 243.12C79.4808 243.572 80.6658 243.799 81.8607 243.789L126.922 243.514ZM87.9638 220.321L88.0165 211.892L88.9714 34.447C88.9714 34.447 88.9931 24.5628 89.0168 20.3859C89.0416 16.209 92.3495 12.8216 96.3652 12.8526L118.066 12.9973L126.307 13.0665C134.123 13.0665 139.052 20.389 140.904 29.7193L147.032 63.2884L147.033 210.079C145.689 214.405 145.442 228.345 130.173 228.345L95.2222 228.596C91.1993 228.633 87.9401 224.912 87.9638 220.321Z" fill="#EDCA4C"/>
<path d="M79.6028 32.9889L79.6607 17.5906C79.6824 15.002 82.2617 12.8329 85.2977 12.8526L118.831 13.0107L124.08 13.084C134.317 13.084 137.878 23.921 138.933 28.5784L146.597 65.32C146.548 65.0818 146.522 64.839 146.522 64.5956L146.523 225.511C146.523 225.106 146.592 224.705 146.728 224.326C146.414 225.207 146.177 226.217 145.9 227.389C144.447 233.552 142.458 241.992 128.946 241.992L83.8634 242.268C83.1367 242.277 82.4154 242.141 81.7423 241.867C81.0691 241.593 80.4575 241.187 79.9438 240.673C79.4289 240.162 79.0216 239.552 78.7459 238.881C78.4703 238.209 78.3319 237.49 78.339 236.764L78.403 227.527C78.4063 227.062 78.3178 226.6 78.1427 226.169C77.9676 225.738 77.7093 225.345 77.3824 225.014C77.0556 224.682 76.6667 224.419 76.2379 224.238C75.8091 224.056 75.3488 223.961 74.8834 223.958C74.4179 223.955 73.9564 224.043 73.5251 224.219C73.0938 224.394 72.7012 224.652 72.3698 224.979C72.0383 225.306 71.7745 225.695 71.5934 226.123C71.4123 226.552 71.3174 227.012 71.3141 227.478L71.25 236.717C71.2336 238.384 71.5516 240.037 72.1853 241.579C72.8189 243.121 73.7554 244.52 74.9392 245.693C76.1147 246.873 77.5146 247.804 79.0563 248.434C80.5979 249.064 82.25 249.378 83.915 249.359L128.966 249.083C148.072 249.083 151.386 235.023 152.802 229.017C153.02 228.09 153.227 227.214 153.409 226.701C153.545 226.32 153.614 225.919 153.614 225.514L153.614 64.5987C153.614 64.3548 153.589 64.113 153.54 63.8743L145.862 27.0749C142.865 13.856 134.736 5.99821 124.107 5.99821L118.876 5.9238L85.3411 5.7657C78.3503 5.71816 72.6182 11.0008 72.5728 17.543L72.5159 32.9744C72.514 33.9142 72.8855 34.8162 73.5487 35.4821C74.2118 36.148 75.1123 36.5232 76.0521 36.5251C76.9919 36.527 77.894 36.1555 78.5598 35.4923C79.2257 34.8292 79.6009 33.9286 79.6028 32.9889Z" fill="#6E6E96"/>
<path d="M71.9083 86.1621L71.9083 163.475C71.9083 164.415 72.2818 165.317 72.9466 165.982C73.6114 166.646 74.5131 167.02 75.4533 167.02C76.3935 167.02 77.2952 166.646 77.96 165.982C78.6248 165.317 78.9983 164.415 78.9983 163.475L78.9983 86.1621C78.9983 85.222 78.6248 84.3203 77.96 83.6555C77.2952 82.9906 76.3935 82.6172 75.4533 82.6172C74.5131 82.6172 73.6114 82.9906 72.9466 83.6555C72.2818 84.3203 71.9083 85.222 71.9083 86.1621ZM150.068 64.5988L150.068 71.6887L102.201 71.6887L102.201 64.5988L150.068 64.5988Z" fill="#6E6E96"/>
<path d="M89.0065 21.2849C89.0065 21.2849 116.283 26.2792 116.283 58.1836C116.283 90.0889 88.6221 97.6853 88.6221 97.6853L89.0065 21.2849Z" fill="#EDCA4C"/>
<path d="M102.121 90.1695L102.121 162.025L91.8638 162.025L91.8638 90.1695L102.121 90.1695Z" fill="#EDCA4C"/>
<path d="M87.9938 153.967C87.9938 153.967 117.296 160.987 117.296 192.891C117.296 231.379 87.6094 230.369 87.6094 230.369L87.9938 153.967Z" fill="#EDCA4C"/>
<path d="M75.7958 252.093C73.0119 252.093 70.7313 249.814 70.7313 247.03L70.7313 9.34636C70.7313 6.56142 73.0119 4.28284 75.7958 4.28284L85.7637 4.28284C88.5508 4.28284 90.8293 6.56142 90.8293 9.34636L90.8293 247.028C90.8293 249.812 88.5507 252.091 85.7637 252.091L75.7958 252.093Z" fill="#F0F0FF"/>
<path d="M75.7958 248.547C75.3944 248.542 75.0109 248.381 74.7269 248.097C74.443 247.813 74.2811 247.43 74.2757 247.028L74.2757 9.34633C74.2808 8.94476 74.4426 8.56107 74.7266 8.27709C75.0106 7.99311 75.3943 7.83133 75.7958 7.82624L85.7637 7.82624C86.5884 7.82624 87.2849 8.52377 87.2849 9.34633L87.2849 247.028C87.2849 247.851 86.5884 248.547 85.7637 248.547L75.7958 248.547ZM85.7627 255.637C90.509 255.637 94.3728 251.775 94.3728 247.028L94.3728 9.34633C94.3728 4.59902 90.509 0.737305 85.7627 0.737304L75.7948 0.737304C71.0464 0.737304 67.1858 4.59902 67.1858 9.34633L67.1858 247.028C67.1858 251.775 71.0464 255.637 75.7948 255.637L85.7627 255.637Z" fill="#6E6E96"/>
<path d="M80.1928 4.2818L80.1928 250.616L73.1049 250.616L73.1049 4.2818L80.1928 4.2818Z" fill="#6E6E96"/>
<path d="M75.7463 32.8514C72.2141 32.8514 68.7166 33.5471 65.4534 34.8988C62.1901 36.2505 59.2251 38.2317 56.7275 40.7293C54.2299 43.2269 52.2487 46.1919 50.897 49.4552C49.5453 52.7184 48.8496 56.2159 48.8496 59.7481C48.8496 63.2802 49.5453 66.7777 50.897 70.041C52.2487 73.3042 54.2299 76.2693 56.7275 78.7669C59.2251 81.2644 62.1901 83.2456 65.4534 84.5973C68.7166 85.949 72.2141 86.6447 75.7462 86.6447C82.8797 86.6447 89.7209 83.8109 94.765 78.7669C99.8091 73.7228 102.643 66.8815 102.643 59.7481C102.643 52.6146 99.8091 45.7734 94.765 40.7293C89.7209 35.6852 82.8797 32.8514 75.7463 32.8514Z" fill="#F0F0FF"/>
<path d="M96.5646 59.7481C96.5646 71.2278 87.2239 80.5685 75.7462 80.5685C73.011 80.5756 70.3015 80.0403 67.7744 78.9936C65.2474 77.947 62.9529 76.4096 61.0238 74.4705C59.0845 72.5414 57.5471 70.2468 56.5008 67.7195C55.4544 65.1922 54.9198 62.4824 54.9279 59.747C54.9279 48.2694 64.2665 38.9287 75.7462 38.9287C87.2239 38.9287 96.5646 48.2683 96.5646 59.7481ZM75.7462 26.7752C57.564 26.7752 42.7734 41.5659 42.7734 59.7491C42.7734 77.9334 57.564 92.724 75.7462 92.724C93.9295 92.724 108.72 77.9334 108.72 59.7491C108.72 41.5659 93.9274 26.7752 75.7462 26.7752Z" fill="#6E6E96"/>
<path d="M85.9601 58.6413C85.9601 69.0794 78.7905 77.8393 69.1089 80.275C70.8573 80.7162 72.6843 80.9498 74.5702 80.9498C86.8932 80.9498 96.8808 70.9622 96.8808 58.6413C96.8808 46.3194 86.8932 36.3287 74.5702 36.3287C72.6864 36.3287 70.8573 36.5654 69.1089 37.0056C78.7905 39.4423 85.9601 48.2032 85.9601 58.6413Z" fill="#6E6E96"/>
<path d="M75.3722 51.8872C74.4122 51.887 73.4617 52.076 72.5748 52.4432C71.6878 52.8105 70.882 53.3488 70.2031 54.0275C69.5243 54.7063 68.9858 55.5121 68.6184 56.3989C68.251 57.2858 68.0619 58.2363 68.0619 59.1962C68.0619 60.1562 68.251 61.1067 68.6184 61.9936C68.9858 62.8804 69.5243 63.6862 70.2031 64.365C70.882 65.0437 71.6878 65.582 72.5748 65.9493C73.4617 66.3165 74.4122 66.5055 75.3722 66.5053C76.3321 66.5055 77.2827 66.3165 78.1696 65.9493C79.0565 65.582 79.8624 65.0437 80.5412 64.365C81.22 63.6862 81.7585 62.8804 82.1259 61.9936C82.4933 61.1067 82.6824 60.1562 82.6824 59.1963C82.6824 58.2363 82.4933 57.2858 82.1259 56.3989C81.7585 55.5121 81.22 54.7063 80.5412 54.0276C79.8624 53.3488 79.0565 52.8105 78.1696 52.4432C77.2827 52.076 76.3321 51.887 75.3722 51.8872Z" fill="#6E6E96"/>
<path d="M75.7462 168.448C68.6128 168.448 61.7716 171.281 56.7275 176.325C51.6834 181.369 48.8496 188.211 48.8496 195.344C48.8496 202.478 51.6834 209.319 56.7275 214.363C61.7715 219.407 68.6128 222.241 75.7462 222.241C82.8797 222.241 89.7209 219.407 94.765 214.363C99.8091 209.319 102.643 202.478 102.643 195.344C102.643 188.211 99.8091 181.369 94.765 176.325C89.7209 171.281 82.8797 168.448 75.7462 168.448Z" fill="#F0F0FF"/>
<path d="M96.5646 195.344C96.5646 206.823 87.2239 216.165 75.7462 216.165C73.011 216.172 70.3015 215.636 67.7744 214.59C65.2474 213.543 62.9529 212.006 61.0238 210.067C59.0845 208.138 57.5472 205.843 56.5008 203.316C55.4544 200.789 54.9198 198.079 54.9279 195.344C54.9279 183.866 64.2665 174.526 75.7462 174.526C87.2239 174.524 96.5646 183.863 96.5646 195.344ZM75.7462 162.369C57.564 162.369 42.7734 177.159 42.7734 195.342C42.7734 213.526 57.564 228.317 75.7462 228.317C93.9295 228.317 108.72 213.526 108.72 195.342C108.72 177.16 93.9274 162.369 75.7462 162.369Z" fill="#6E6E96"/>
<path d="M85.9601 194.236C85.9601 204.676 78.7905 213.435 69.1089 215.871C70.8573 216.312 72.6843 216.545 74.5702 216.545C86.8932 216.545 96.8808 206.558 96.8808 194.236C96.8808 181.915 86.8932 171.925 74.5702 171.925C72.6864 171.925 70.8573 172.161 69.1089 172.601C78.7905 175.037 85.9601 183.799 85.9601 194.236Z" fill="#6E6E96"/>
<path d="M75.3722 187.481C74.4122 187.481 73.4617 187.67 72.5747 188.037C71.6878 188.405 70.8819 188.943 70.2031 189.622C69.5243 190.3 68.9858 191.106 68.6184 191.993C68.251 192.88 68.0619 193.83 68.0619 194.79C68.0619 195.75 68.251 196.701 68.6184 197.588C68.9858 198.474 69.5243 199.28 70.2031 199.959C70.8819 200.638 71.6878 201.176 72.5747 201.543C73.4617 201.911 74.4122 202.099 75.3722 202.099C76.3321 202.099 77.2827 201.911 78.1696 201.543C79.0565 201.176 79.8624 200.638 80.5412 199.959C81.22 199.28 81.7585 198.474 82.1259 197.588C82.4933 196.701 82.6824 195.75 82.6824 194.79C82.6824 193.83 82.4933 192.88 82.1259 191.993C81.7585 191.106 81.22 190.3 80.5412 189.622C79.8624 188.943 79.0565 188.405 78.1696 188.037C77.2827 187.67 76.3321 187.481 75.3722 187.481Z" fill="#6E6E96"/>
<path d="M148.752 144.781L148.752 151.87L94.0824 151.87L94.0824 144.781L148.752 144.781ZM132.714 126.719L132.714 136.847L125.625 136.847L125.625 126.719L132.714 126.719Z" fill="#6E6E96"/>
<path d="M136.972 78.3612L111.68 78.3612L114.387 71.6877L136.693 71.6877L136.972 78.3612Z" fill="white"/>
<path d="M163.305 96.6281C163.305 88.481 169.986 88.2929 178.15 90.0187L189.028 92.0069C199.897 94.3061 203.876 101.243 203.876 109.962L203.876 185.761C203.876 196.544 197.116 200.584 188.854 201.8L178.326 203.627C170.064 204.844 163.305 204.187 163.305 196.039L163.305 96.6281Z" fill="#AADBF7"/>
<path d="M166.85 96.6281C166.85 95.0419 167.168 93.9806 167.796 93.4701C168.697 92.7395 171.098 92.1505 177.418 93.4877C177.514 93.5073 188.391 95.4924 188.391 95.4924C196.507 97.2099 200.332 101.813 200.332 109.96L200.332 185.761C200.332 193.205 196.632 197.068 188.338 198.292C188.251 198.309 177.723 200.132 177.723 200.132C172.656 200.876 169.327 200.646 167.921 199.43C167.657 199.202 166.851 198.506 166.851 196.037L166.85 96.6281ZM159.76 196.037C159.76 199.83 160.947 202.776 163.287 204.798C167.343 208.301 173.732 207.884 178.844 207.132L189.459 205.293C204.29 203.111 207.421 193.465 207.421 185.763L207.421 109.962C207.421 98.5564 201.149 90.9487 189.761 88.5409C189.664 88.5203 178.788 86.5341 178.788 86.5341C173.784 85.476 167.407 84.6617 163.33 87.9674C160.961 89.8864 159.759 92.8036 159.759 96.6312L159.76 196.037Z" fill="#6E6E96"/>
<path d="M203.876 144.611L203.876 151.701L163.305 151.701L163.305 144.611L203.876 144.611Z" fill="#6E6E96"/>
<path d="M191.235 96.2737L191.235 197.709L202.469 193.228L202.469 102.016L191.235 96.2737Z" fill="#6E6E96"/>
<path d="M191.235 151.701L191.235 160.31L166.85 160.31L166.85 151.701L191.235 151.701Z" fill="#6E6E96"/>
<path d="M183.168 114.225L183.168 100.047L190.765 101.059L190.765 114.225L183.168 114.225Z" fill="white"/>
<path d="M190.765 160.648L190.765 173.814L183.168 173.814L183.168 160.648L190.765 160.648Z" fill="white"/>
<path d="M110.602 9.56647L110.602 23.2659L90.8511 23.2659L90.8511 9.56647L110.602 9.56647Z" fill="white"/>
<path d="M87.2343 23.2659L87.2343 9.56645C87.2343 8.60721 87.6153 7.68727 88.2936 7.00898C88.9719 6.3307 89.8918 5.94964 90.8511 5.94964L110.602 5.94965C111.561 5.94965 112.481 6.3307 113.159 7.00898C113.838 7.68727 114.219 8.60722 114.219 9.56645L114.219 23.2659C114.219 24.2251 113.838 25.1451 113.159 25.8233C112.481 26.5016 111.561 26.8827 110.602 26.8827L90.8511 26.8827C89.8918 26.8827 88.9719 26.5016 88.2936 25.8233C87.6153 25.1451 87.2343 24.2251 87.2343 23.2659ZM94.4679 13.1833L94.4679 19.6491L106.985 19.6491L106.985 13.1833L94.4679 13.1833Z" fill="#6E6E96"/>
<path d="M112.626 234.417L112.626 246.064L90.851 246.064L90.851 234.417L112.626 234.417Z" fill="#FF5F5F"/>
<path d="M87.2342 246.064L87.2342 234.417C87.2342 233.458 87.6153 232.538 88.2936 231.86C88.9719 231.181 89.8918 230.8 90.8511 230.8L112.626 230.8C113.586 230.8 114.505 231.181 115.184 231.86C115.862 232.538 116.243 233.458 116.243 234.417L116.243 246.064C116.243 247.023 115.862 247.943 115.184 248.622C114.505 249.3 113.586 249.681 112.626 249.681L90.8511 249.681C88.8546 249.681 87.2342 248.061 87.2342 246.064ZM94.4679 238.034L94.4679 242.447L109.009 242.447L109.009 238.034L94.4679 238.034Z" fill="#6E6E96"/>
<path d="M132.714 207.727L132.714 217.856L125.625 217.856L125.625 207.727L132.714 207.727Z" fill="#6E6E96"/>
</svg>
