<svg width="200" height="200" viewBox="0 0 200 200" fill="none" xmlns="http://www.w3.org/2000/svg">
<path d="M85.1429 151.429L85.1429 47.1429C85.1429 29.4286 99.4286 15.1429 117.143 15.1429L149.143 15.1429L149.143 183.714L117.429 183.714C99.7143 183.714 85.1429 169.143 85.1429 151.429Z" fill="#64B829"/>
<path d="M151.429 13.1429L151.429 185.714L117.429 185.714C98.5714 185.714 83.4286 170.286 83.4286 151.714L83.4286 47.4286C83.4286 28.5714 98.8572 13.4286 117.429 13.4286L151.429 13.4286L151.429 13.1429ZM147.429 181.714L147.429 17.1429L117.429 17.1429C100.857 17.1429 87.4286 30.5714 87.4286 47.1429L87.4286 151.429C87.4286 168 100.857 181.429 117.429 181.429L147.429 181.429L147.429 181.714Z" fill="#141515"/>
<path d="M149.429 116L149.429 183.714L129.714 183.714C114.857 179.143 104.286 166 104.286 150.571C104.286 131.143 120.857 115.429 141.429 115.429C144.286 115.143 146.857 115.429 149.429 116Z" fill="#B2D577"/>
<path d="M151.429 114.286L151.429 185.714L129.143 185.714C113.143 180.571 102.286 166.571 102.286 150.571C102.286 130 120 113.429 141.714 113.429C144.571 113.429 147.143 113.714 150 114.286L151.429 114.286ZM147.429 181.714L147.429 118C145.429 117.714 143.429 117.429 141.714 117.429C122.286 117.429 106.571 132.286 106.571 150.571C106.571 164.571 116 177.143 130.286 181.714L147.429 181.714Z" fill="#141515"/>
<path d="M122.286 15.1429L149.429 15.1429L149.429 83.4286C146.857 84 144.286 84.2857 141.714 84.2857C120 84.2857 102.857 67.7143 102.857 47.4286C102.857 33.4286 110.571 21.7143 122.286 15.1429Z" fill="#B2D577"/>
<path d="M151.429 13.1429L151.429 85.1429L149.714 85.4286C147.143 86 144.286 86.2857 141.429 86.2857C118.857 86.2857 100.571 68.8571 100.571 47.4286C100.571 33.4286 108.571 20.5714 121.143 13.4286L121.714 13.1429L151.429 13.1429ZM147.429 81.7143L147.429 17.1429L122.857 17.1429C111.714 23.4286 104.857 34.8571 104.857 47.1429C104.857 66.2857 121.429 82 141.714 82C143.429 82.2857 145.429 82 147.429 81.7143Z" fill="#141515"/>
<path d="M135.429 183.714L135.429 15.4286L149.429 15.4286L149.429 183.714L135.429 183.714Z" fill="#97CA1B"/>
<path d="M151.429 13.1429L151.429 185.714L133.429 185.714L133.429 13.1429L151.429 13.1429ZM147.429 181.714L147.429 17.1429L137.429 17.1429L137.429 181.714L147.429 181.714Z" fill="#141515"/>
<path d="M38 104.286C38 74.5714 58.8571 48.5714 85.4286 44.2857L85.4286 151.714C85.4286 153.429 85.4286 155.143 85.7143 156.857C59.1429 156.857 38 134 38 104.286Z" fill="#97CA1B"/>
<path d="M88 158.857L85.7143 158.857C73.1429 158.857 61.1429 154 52 144.857C41.7143 134.571 36 120 36 104.286C36 74 57.4286 46.5714 85.1429 42.2857L87.7143 42L87.4286 44.5714L87.4286 151.714C87.4286 153.429 87.4286 154.857 87.7143 156.571L88 158.857ZM40 104.286C40 119.143 45.1429 132.571 54.8571 142C62.5714 149.714 72.5714 154.286 83.4286 154.571L83.4286 46.5715C58.8571 52 40 76.5715 40 104.286Z" fill="#141515"/>
<path d="M85.4286 54L85.4286 148.571C64.5714 143.714 49.4286 126 49.4286 103.714C49.4286 81.4286 64.5714 61.7143 85.4286 54Z" fill="#90CED9"/>
<path d="M87.4286 51.1429L87.4286 151.143L84.8572 150.571C62.2857 145.429 47.4286 126.571 47.4286 103.714C47.4286 81.1429 62.2857 60.2857 84.8572 52L87.4286 51.1429ZM83.4286 146L83.4286 57.1429C64 65.1429 51.4286 83.7143 51.4286 103.714C51.4286 123.714 64 140.286 83.4286 146Z" fill="#141515"/>
<path d="M85.4286 108.286L85.4286 116.857L51.1429 116.857C50.2857 114.286 49.7143 111.429 49.4286 108.286L85.4286 108.286Z" fill="#97CA1B"/>
<path d="M87.4286 106.286L87.4286 118.857L49.7143 118.857L49.4286 117.429C48.5714 114.571 48 111.714 47.7143 108.571L47.4286 106.286L87.4286 106.286ZM83.4286 114.571L83.4286 110.286L52 110.286L52.8572 114.571L83.4286 114.571Z" fill="#141515"/>
<path d="M162 148.286C162 137.143 152.857 128 141.714 128C130.571 128 121.429 137.143 121.429 148.286C121.429 159.429 130.571 168.571 141.714 168.571C152.857 168.571 162 159.429 162 148.286Z" fill="#A1A69C"/>
<path d="M164 148.286C164 160.571 154 170.571 141.714 170.571C129.429 170.571 119.429 160.571 119.429 148.286C119.429 136 129.429 126 141.714 126C154 126 164 136 164 148.286ZM123.143 148.286C123.143 158.286 131.429 166.571 141.429 166.571C151.429 166.571 159.714 158.286 159.714 148.286C159.714 138.286 151.429 130 141.429 130C131.429 130 123.143 138.286 123.143 148.286Z" fill="#141515"/>
<path d="M141.714 158C144.291 158 146.762 156.977 148.583 155.155C150.405 153.333 151.429 150.862 151.429 148.286C151.429 145.709 150.405 143.238 148.583 141.417C146.762 139.595 144.291 138.571 141.714 138.571C139.138 138.571 136.667 139.595 134.845 141.417C133.023 143.238 132 145.709 132 148.286C132 150.862 133.023 153.333 134.845 155.155C136.667 156.977 139.138 158 141.714 158Z" fill="#DAD9B4"/>
<path d="M153.143 148.286C153.143 154.571 148 160 141.429 160C135.143 160 129.714 154.857 129.714 148.286C129.714 142 134.857 136.571 141.429 136.571C148 136.571 153.143 142 153.143 148.286ZM134 148.286C134 152.571 137.429 156 141.714 156C146 156 149.429 152.571 149.429 148.286C149.429 144 146 140.571 141.714 140.571C137.429 140.857 134 144 134 148.286Z" fill="#141515"/>
<path d="M162 48.8571C162 37.7143 152.857 28.5714 141.714 28.5714C130.571 28.5714 121.429 37.7143 121.429 48.8571C121.429 60 130.571 69.1429 141.714 69.1429C152.857 69.1429 162 60.2857 162 48.8571Z" fill="#A1A69C"/>
<path d="M164 48.8571C164 61.1429 154 71.1429 141.714 71.1429C129.429 71.1429 119.429 61.1429 119.429 48.8571C119.429 36.5714 129.429 26.5714 141.714 26.5714C154 26.5714 164 36.5714 164 48.8571ZM123.143 48.8571C123.143 58.8571 131.429 67.1429 141.429 67.1429C151.429 67.1429 159.714 58.8571 159.714 48.8571C159.714 38.8571 151.429 30.5714 141.429 30.5714C131.429 30.5714 123.143 38.8571 123.143 48.8571Z" fill="#141515"/>
<path d="M141.714 58.5714C142.99 58.5716 144.253 58.3205 145.432 57.8324C146.611 57.3443 147.682 56.6288 148.584 55.7267C149.486 54.8246 150.202 53.7536 150.69 52.575C151.179 51.3963 151.43 50.133 151.43 48.8571C151.43 47.5813 151.179 46.318 150.69 45.1393C150.202 43.9607 149.486 42.8897 148.584 41.9876C147.682 41.0856 146.611 40.37 145.432 39.8819C144.253 39.3938 142.99 39.1427 141.714 39.1429C140.438 39.1427 139.175 39.3938 137.996 39.8819C136.818 40.37 135.747 41.0856 134.844 41.9876C133.942 42.8897 133.227 43.9607 132.738 45.1393C132.25 46.318 131.999 47.5813 131.999 48.8571C131.999 50.133 132.25 51.3963 132.738 52.575C133.227 53.7536 133.942 54.8246 134.844 55.7267C135.747 56.6288 136.818 57.3443 137.996 57.8324C139.175 58.3205 140.438 58.5716 141.714 58.5714Z" fill="#DAD9B4"/>
<path d="M153.143 48.8571C153.143 55.1429 148 60.5714 141.429 60.5714C135.143 60.5714 129.714 55.4286 129.714 48.8571C129.714 42.5714 134.857 37.1429 141.429 37.1429C148 37.4286 153.143 42.5714 153.143 48.8571ZM134 48.8571C134 53.1429 137.429 56.5714 141.714 56.5714C146 56.5714 149.429 53.1429 149.429 48.8571C149.429 44.5714 146 41.1429 141.714 41.1429C137.429 41.4286 134 44.8571 134 48.8571Z" fill="#141515"/>
<path d="M126 112.286C126 113.429 125.143 114.286 124 114.286L95.7143 114.286C94.5714 114.286 93.7143 113.429 93.7143 112.286C93.7143 111.143 94.5714 110.286 95.7143 110.286L124 110.286C125.143 110.286 126 111.143 126 112.286Z" fill="#141515"/>
<path d="M77.4286 70.8572L77.4286 56C77.4286 54.5714 78.5714 53.1429 80.2857 53.1429L87.4286 53.1429C88.8572 53.1429 90.2857 54.2857 90.2857 56L90.2857 70.8571C90.2857 72.2857 89.1429 73.7143 87.4286 73.7143L80 73.7143C78.5714 73.7143 77.4286 72.2857 77.4286 70.8572Z" fill="#DAE483"/>
<path d="M92 56L92 70.8572C92 73.4286 89.7143 75.7143 87.1429 75.7143L80 75.7143C77.4286 75.7143 75.1429 73.4286 75.1429 70.8572L75.1429 56C75.1429 53.4286 77.4286 51.1429 80 51.1429L87.1429 51.1429C89.7143 51.1429 92 53.4286 92 56ZM79.4286 70.8572C79.4286 71.4286 79.7143 71.7143 80.2857 71.7143L87.4286 71.7143C88 71.7143 88.2857 71.4286 88.2857 70.8572L88.2857 56C88.2857 55.4286 88 55.1429 87.4286 55.1429L80 55.1429C79.4286 55.1429 79.1429 55.4286 79.1429 56L79.1429 70.8572L79.4286 70.8572Z" fill="#141515"/>
<path d="M134.571 191.429L134.571 177.429L140.857 177.429L140.857 191.429L134.571 191.429Z" fill="#6E7377"/>
<path d="M142.857 177.143L142.857 191.429C142.857 192.571 142 193.429 140.857 193.429L134.571 193.429C133.429 193.429 132.571 192.571 132.571 191.429L132.571 177.143C132.571 176 133.429 175.143 134.571 175.143L140.857 175.143C142 175.143 142.857 176.286 142.857 177.143ZM138.857 189.429L138.857 179.429L136.571 179.429L136.571 189.429L138.857 189.429Z" fill="#141515"/>
<path d="M119.143 24.8571L119.143 12.2857C119.143 10.2857 120.857 8.57144 122.857 8.57144L124.857 8.57144C126.857 8.57144 128.571 10.2857 128.571 12.2857L128.571 24.8571C128.571 26.8571 126.857 28.5714 124.857 28.5714L122.857 28.5714C120.571 28.5714 119.143 26.8571 119.143 24.8571Z" fill="#FFE638"/>
<path d="M130.571 12.2857L130.571 24.8571C130.571 28 128 30.5714 124.857 30.5714L122.857 30.5714C119.714 30.5714 117.143 28 117.143 24.8571L117.143 12.2857C117.143 9.14286 119.714 6.57143 122.857 6.57143L124.857 6.57143C128 6.57143 130.571 9.14286 130.571 12.2857ZM121.143 24.8571C121.143 25.7143 122 26.5714 122.857 26.5714L124.857 26.5714C125.714 26.5714 126.571 25.7143 126.571 24.8571L126.571 12.2857C126.571 11.4286 125.714 10.5714 124.857 10.5714L122.857 10.5714C122 10.5714 121.143 11.4286 121.143 12.2857L121.143 24.8571Z" fill="#141515"/>
<path d="M109.429 23.7143C111.096 23.7143 112.694 23.0521 113.873 21.8733C115.052 20.6945 115.714 19.0957 115.714 17.4286C115.714 15.7615 115.052 14.1627 113.873 12.9839C112.694 11.8051 111.096 11.1429 109.429 11.1429C107.762 11.1429 106.163 11.8051 104.984 12.9839C103.805 14.1627 103.143 15.7615 103.143 17.4286C103.143 19.0957 103.805 20.6945 104.984 21.8733C106.163 23.0521 107.762 23.7143 109.429 23.7143Z" fill="#FCDD10"/>
<path d="M117.714 17.4286C117.714 22 114 25.7143 109.429 25.7143C104.857 25.7143 101.143 22 101.143 17.4286C101.143 12.8572 104.857 9.14286 109.429 9.14286C114 8.85715 117.714 12.8572 117.714 17.4286ZM105.143 17.4286C105.143 19.7143 107.143 21.7143 109.429 21.7143C111.714 21.7143 113.714 19.7143 113.714 17.4286C113.714 15.1429 111.714 13.1429 109.429 13.1429C107.143 13.1429 105.143 14.8572 105.143 17.4286Z" fill="#141515"/>
<path d="M70.5714 100.857C70.5714 101.429 70.2857 102 70 102.286C69.1429 103.143 68 103.143 67.1429 102.286L58 93.1429C57.1429 92.2857 57.1429 91.1429 58 90.2857C58.8571 89.4286 60 89.4286 60.8571 90.2857L70 99.4286C70.5714 99.7143 70.5714 100.286 70.5714 100.857Z" fill="#141515"/>
<path d="M81.1429 99.4286C81.1429 100 80.8572 100.571 80.5715 100.857C79.7143 101.714 78.5715 101.714 77.7143 100.857L60.5714 84.2857C59.7143 83.4286 59.7143 82.2857 60.5714 81.4286C61.4286 80.5714 62.5714 80.5714 63.4286 81.4286L80.5715 98C81.1429 98.2857 81.1429 98.8571 81.1429 99.4286Z" fill="#141515"/>
</svg>
