<svg width="200" height="202" viewBox="0 0 200 202" fill="none" xmlns="http://www.w3.org/2000/svg">
<path d="M85.4617 139.141L57.2074 150.086C56.2159 150.478 55.5305 151.596 55.4737 152.982L54.8213 165.875C54.7036 168.288 56.3967 170.401 58.2244 170.09L85.4909 165.285L85.4617 139.141Z" fill="#4ED1C7"/>
<path d="M87.7305 167.172L58.5855 172.317C57.1912 172.558 55.8181 172.133 54.6824 171.142C53.2498 169.872 52.4267 167.821 52.5217 165.759L53.191 152.856C53.3068 150.557 54.5242 148.681 56.3889 147.965L87.7386 135.819L87.7305 167.172ZM58.0163 152.19C57.9824 152.21 57.7632 152.494 57.7198 153.083L57.0674 165.977C57.0164 167.021 57.6035 167.764 57.8703 167.836L83.2051 163.358L83.2016 142.453L58.0163 152.19Z" fill="#3B3A6D"/>
<path d="M124.095 139.141L152.359 150.089C153.344 150.467 154.025 151.608 154.099 152.986L154.76 165.888C154.887 168.295 153.176 170.411 151.372 170.099L124.107 165.295L124.095 139.141Z" fill="#4ED1C7"/>
<path d="M154.001 171.761C153.054 172.308 151.999 172.511 150.963 172.32L121.814 167.183L121.822 135.83L153.168 147.975C155.022 148.686 156.247 150.573 156.359 152.876L157.02 165.779C157.126 167.837 156.304 169.89 154.875 171.166C154.591 171.376 154.306 171.585 154.001 171.761ZM126.371 163.357L151.752 167.827C151.958 167.754 152.536 167.036 152.481 165.964L151.82 153.061C151.793 152.468 151.567 152.193 151.503 152.162L126.367 142.452L126.371 163.357Z" fill="#3B3A6D"/>
<path d="M104.53 2.55856C93.8631 2.56003 85.2242 17.2454 85.2345 35.3493C85.2314 35.7345 85.2358 69.9219 85.2354 103.007C85.2479 131.935 85.2308 161.827 85.2251 162.169C85.2301 177.998 93.8584 190.833 104.525 190.832C115.192 190.83 123.836 177.991 123.831 162.162C123.837 161.82 123.827 131.921 123.842 103C123.842 69.9147 123.838 35.7273 123.841 35.3421C123.847 17.2285 115.196 2.5571 104.53 2.55856Z" fill="#4ED1C7"/>
<path d="M112.578 190.873C110.091 192.309 107.391 193.101 104.547 193.097C92.6377 193.094 82.9583 179.219 82.9672 162.164L82.9682 53.5723C82.9705 42.6779 82.9604 35.512 82.9766 35.3448C82.9698 26.1923 85.1019 17.5415 88.9538 11.01C93.0366 4.09719 98.5746 0.29089 104.568 0.281161C116.678 0.280533 126.151 15.6726 126.159 35.3342C126.153 35.5183 126.163 42.6843 126.151 53.5617L126.15 162.154C126.115 175.141 120.511 186.293 112.578 190.873ZM99.4321 6.26841C97.0134 7.66489 94.7589 10.0491 92.8378 13.3232C89.3995 19.1649 87.489 26.9886 87.4924 35.3537C87.4859 35.5379 87.496 42.7038 87.4839 53.5813L87.4998 162.164C87.4895 176.716 95.1395 188.56 104.546 188.564C113.953 188.568 121.59 176.717 121.583 162.174L121.584 53.582C121.586 42.6877 121.576 35.5218 121.593 35.3545C121.589 18.8253 113.794 4.85509 104.545 4.85024C102.793 4.82413 101.073 5.32114 99.4321 6.26841Z" fill="#3B3A6D"/>
<path d="M95.3673 48.7591L92.3657 48.7555C91.6656 48.7538 91.0889 48.1847 91.0906 47.4845L91.0958 43.1965C91.0975 42.4964 91.6666 41.9197 92.3668 41.9214L95.3684 41.925C96.0685 41.9268 96.6452 42.4959 96.6435 43.1961L96.6383 47.484C96.6197 48.1939 96.0577 48.7439 95.3673 48.7591ZM95.358 60.2664L92.3564 60.2628C91.6563 60.2611 91.0796 59.6919 91.0813 58.9918L91.0864 54.7038C91.0882 54.0037 91.6573 53.427 92.3574 53.4287L95.359 53.4323C96.0592 53.434 96.6359 54.0032 96.6341 54.7033L96.629 58.9913C96.6273 59.6915 96.0581 60.2681 95.358 60.2664ZM95.3487 71.7737L92.3471 71.7701C91.6469 71.7684 91.0703 71.1992 91.072 70.4991L91.0771 66.2111C91.0788 65.511 91.648 64.9343 92.3481 64.936L95.3497 64.9396C96.0499 64.9413 96.6265 65.5105 96.6248 66.2106L96.6197 70.4986C96.6277 71.2157 96.0488 71.7754 95.3487 71.7737ZM95.366 83.2881L92.3644 83.2845C91.6643 83.2828 91.0876 82.7137 91.0893 82.0135L91.0945 77.7255C91.0962 77.0254 91.6654 76.4487 92.3655 76.4504L95.3671 76.454C96.0672 76.4558 96.6439 77.0249 96.6422 77.7251L96.637 82.013C96.6184 82.7229 96.0661 83.2899 95.366 83.2881ZM95.3567 94.7954L92.3551 94.7918C91.655 94.7901 91.0783 94.2209 91.08 93.5208L91.0851 89.2328C91.0869 88.5327 91.656 87.956 92.3562 87.9577L95.3577 87.9613C96.0579 87.9631 96.6346 88.5322 96.6328 89.2323L96.6277 93.5203C96.626 94.2205 96.0568 94.7971 95.3567 94.7954ZM95.3571 106.32L92.3555 106.316C91.6554 106.314 91.0787 105.745 91.0804 105.045L91.0856 100.757C91.0873 100.057 91.6565 99.4802 92.3566 99.4819L95.3582 99.4855C96.0583 99.4873 96.635 100.056 96.6333 100.757L96.6281 105.045C96.6264 105.745 96.0573 106.321 95.3571 106.32ZM95.3647 117.817L92.3631 117.814C91.663 117.812 91.0863 117.243 91.088 116.543L91.0932 112.255C91.0949 111.554 91.6641 110.978 92.3642 110.979L95.3658 110.983C96.0659 110.985 96.6426 111.554 96.6409 112.254L96.6357 116.542C96.6171 117.252 96.0648 117.819 95.3647 117.817ZM95.3554 129.324L92.3538 129.321C91.6537 129.319 91.077 128.75 91.0787 128.05L91.0838 123.762C91.0856 123.062 91.6547 122.485 92.3549 122.487L95.3565 122.49C96.0566 122.492 96.6333 123.061 96.6315 123.761L96.6264 128.049C96.6344 128.766 96.0555 129.326 95.3554 129.324ZM95.3558 140.849L92.3542 140.845C91.6541 140.843 91.0774 140.274 91.0791 139.574L91.0843 135.286C91.086 134.586 91.6552 134.009 92.3553 134.011L95.3569 134.015C96.057 134.016 96.6337 134.585 96.632 135.286L96.6268 139.574C96.6251 140.274 96.056 140.85 95.3558 140.849ZM95.3465 152.356L92.3449 152.352C91.6448 152.351 91.0681 151.781 91.0698 151.081L91.0749 146.793C91.0767 146.093 91.6458 145.516 92.346 145.518L95.3476 145.522C96.0477 145.524 96.6244 146.093 96.6227 146.793L96.6175 151.081C96.6158 151.781 96.0635 152.348 95.3465 152.356ZM95.3639 163.87L92.3623 163.867C91.6621 163.865 91.0854 163.296 91.0872 162.596L91.0923 158.308C91.094 157.608 91.6632 157.031 92.3633 157.033L95.3649 157.036C96.065 157.038 96.6417 157.607 96.64 158.307L96.6349 162.595C96.6331 163.295 96.064 163.872 95.3639 163.87Z" fill="#6EE8DB"/>
<path d="M116.717 48.7464L113.716 48.7429C113.016 48.7411 112.439 48.172 112.441 47.4718L112.446 43.1838C112.448 42.4837 113.017 41.907 113.717 41.9088L116.718 41.9123C117.419 41.9141 117.995 42.4832 117.994 43.1834L117.988 47.4714C117.98 48.1982 117.418 48.7482 116.717 48.7464ZM116.718 60.2706L113.716 60.267C113.016 60.2653 112.439 59.6962 112.441 58.996L112.446 54.708C112.448 54.0079 113.017 53.4312 113.717 53.433L116.719 53.4365C117.419 53.4383 117.996 54.0074 117.994 54.7076L117.989 58.9956C117.987 59.6957 117.418 60.2724 116.718 60.2706ZM116.709 71.7779L113.707 71.7743C113.007 71.7726 112.43 71.2034 112.432 70.5033L112.437 66.2153C112.439 65.5152 113.008 64.9385 113.708 64.9402L116.71 64.9438C117.41 64.9456 117.986 65.5147 117.985 66.2149L117.98 70.5028C117.978 71.203 117.409 71.7797 116.709 71.7779ZM116.699 83.2852L113.698 83.2816C112.997 83.2799 112.421 82.7107 112.423 82.0106L112.428 77.7226C112.429 77.0225 112.999 76.4458 113.699 76.4475L116.7 76.4511C117.4 76.4528 117.977 77.022 117.975 77.7221L117.97 82.0101C117.978 82.7272 117.416 83.2772 116.699 83.2852ZM116.717 94.7996L113.715 94.796C113.015 94.7943 112.438 94.2252 112.44 93.525L112.445 89.237C112.447 88.5369 113.016 87.9602 113.716 87.962L116.718 87.9655C117.418 87.9673 117.994 88.5364 117.993 89.2366L117.988 93.5246C117.986 94.2247 117.417 94.8014 116.717 94.7996ZM116.707 106.307L113.706 106.303C113.006 106.302 112.429 105.732 112.431 105.032L112.436 100.744C112.437 100.044 113.007 99.4675 113.707 99.4692L116.708 99.4728C117.408 99.4746 117.985 100.044 117.983 100.744L117.978 105.032C117.986 105.749 117.407 106.309 116.707 106.307ZM116.708 117.831L113.706 117.828C113.006 117.826 112.429 117.257 112.431 116.557L112.436 112.269C112.438 111.568 113.007 110.992 113.707 110.993L116.709 110.997C117.409 110.999 117.986 111.568 117.984 112.268L117.979 116.556C117.977 117.256 117.408 117.833 116.708 117.831ZM116.715 129.329L113.714 129.325C113.014 129.323 112.437 128.754 112.439 128.054L112.444 123.766C112.445 123.066 113.015 122.489 113.715 122.491L116.716 122.495C117.416 122.496 117.993 123.065 117.991 123.766L117.986 128.054C117.985 128.754 117.415 129.33 116.715 129.329ZM116.706 140.836L113.704 140.832C113.004 140.831 112.428 140.261 112.429 139.561L112.434 135.273C112.436 134.573 113.005 133.997 113.705 133.998L116.707 134.002C117.407 134.004 117.984 134.573 117.982 135.273L117.977 139.561C117.985 140.278 117.406 140.838 116.706 140.836ZM116.706 152.36L113.705 152.357C113.005 152.355 112.428 151.786 112.43 151.086L112.435 146.798C112.437 146.097 113.006 145.521 113.706 145.522L116.707 145.526C117.408 145.528 117.984 146.097 117.983 146.797L117.977 151.085C117.976 151.785 117.407 152.362 116.706 152.36ZM116.714 163.858L113.712 163.854C113.012 163.852 112.436 163.283 112.437 162.583L112.442 158.295C112.444 157.595 113.013 157.018 113.713 157.02L116.715 157.024C117.415 157.025 117.992 157.594 117.99 158.295L117.985 162.583C117.976 163.309 117.414 163.859 116.714 163.858Z" fill="#6EE8DB"/>
<path d="M124.093 60.9743L181.784 92.4604C183.782 93.5393 185.218 95.5969 185.47 97.7519L187.885 117.715C188.328 121.451 185.136 123.813 181.525 122.402L124.1 100.009L124.093 60.9743Z" fill="#4ED1C7"/>
<path d="M187.005 124.2C185.195 125.244 182.902 125.373 180.715 124.516L121.822 101.572L121.816 57.147L182.863 90.4618C185.505 91.9133 187.373 94.6013 187.72 97.4681L190.134 117.431C190.434 119.942 189.533 122.289 187.694 123.712C187.486 123.899 187.242 124.063 187.005 124.2ZM126.36 98.456L182.351 120.279C183.346 120.674 184.288 120.626 184.923 120.124C185.5 119.678 185.761 118.919 185.643 117.972L183.228 98.0089C183.047 96.6022 182.043 95.175 180.695 94.4421L126.36 64.7846L126.36 98.456Z" fill="#3B3A6D"/>
<path d="M144.527 82.1487C142.025 82.1501 139.985 80.1025 139.984 77.5999L139.98 66.4609C139.979 63.9584 142.027 61.9192 144.529 61.9177C147.032 61.9163 149.071 63.964 149.072 66.4665L149.076 77.6055C149.06 80.1178 147.03 82.1472 144.527 82.1487Z" fill="#EFEFED"/>
<path d="M147.935 83.5192C146.903 84.1149 145.749 84.4205 144.532 84.4234C142.703 84.4195 141.007 83.7075 139.705 82.4294C138.42 81.1414 137.705 79.4343 137.709 77.6052L137.706 66.4662C137.71 64.6371 138.422 62.9406 139.7 61.6388C140.988 60.354 142.695 59.639 144.524 59.6429C146.353 59.6469 148.049 60.3589 149.351 61.637C150.636 62.925 151.351 64.6321 151.347 66.4612L151.351 77.6002C151.347 79.4292 150.635 81.1258 149.357 82.4276C148.91 82.8656 148.442 83.2262 147.935 83.5192ZM143.39 64.5149C143.221 64.6126 143.061 64.7272 142.922 64.8756C142.492 65.3039 142.255 65.8694 142.248 66.4823L142.252 77.6213C142.245 78.2343 142.48 78.7977 142.908 79.227C143.336 79.6563 143.902 79.8936 144.515 79.9006C145.128 79.9075 145.691 79.6725 146.12 79.2442C146.55 78.8159 146.787 78.2504 146.794 77.6374L146.79 66.4984C146.78 65.8953 146.562 65.3221 146.134 64.8928C145.706 64.4634 145.14 64.2261 144.527 64.2192C144.115 64.2089 143.728 64.3196 143.39 64.5149Z" fill="#3B3A6D"/>
<path d="M164.977 89.8728C162.474 89.8743 160.435 87.8266 160.433 85.3241L160.43 74.1851C160.428 71.6826 162.476 69.6433 164.979 69.6419C167.481 69.6404 169.52 71.6881 169.522 74.1907L169.525 85.3296C169.51 87.8419 167.479 89.8714 164.977 89.8728Z" fill="#EFEFED"/>
<path d="M168.357 91.2362C167.359 91.8124 166.198 92.1446 164.955 92.1405C161.193 92.1475 158.139 89.0845 158.132 85.3222L158.128 74.1832C158.132 72.3542 158.844 70.6576 160.122 69.3559C161.41 68.071 163.118 67.356 164.947 67.36C166.776 67.3639 168.472 68.0759 169.774 69.3541C171.059 70.642 171.774 72.3491 171.77 74.1782L171.773 85.3172C171.794 87.8536 170.404 90.0546 168.357 91.2362ZM164.971 87.5981C166.231 87.5925 167.246 86.5777 167.241 85.318L167.237 74.179C167.244 73.5661 167.009 73.0027 166.581 72.5733C166.153 72.144 165.587 71.9067 164.974 71.8997C164.361 71.8928 163.798 72.1279 163.368 72.5562C162.939 72.9844 162.702 73.55 162.695 74.1629L162.698 85.3019C162.697 86.5883 163.712 87.6037 164.971 87.5981Z" fill="#3B3A6D"/>
<path d="M85.4503 60.9574L27.7685 92.4558C25.7771 93.5378 24.3352 95.6107 24.0782 97.7437L21.6452 117.709C21.187 121.447 24.3904 123.792 27.9986 122.386L85.44 100.002L85.4503 60.9574Z" fill="#4ED1C7"/>
<path d="M87.7218 101.571L28.827 124.524C26.3384 125.487 23.7135 125.198 21.8222 123.719C19.9868 122.298 19.0848 119.954 19.3886 117.434L21.7949 97.4608C22.1382 94.5788 23.9553 91.9059 26.65 90.4403L87.6959 57.1125L87.7218 101.571ZM28.7491 94.5058C27.4635 95.248 26.4886 96.6453 26.3179 98.0293L23.9116 118.002C23.802 118.945 24.0573 119.7 24.6261 120.138C25.2509 120.634 26.1814 120.683 27.1898 120.282L83.1778 98.4666L83.1781 64.7952L28.8505 94.4472L28.7491 94.5058Z" fill="#3B3A6D"/>
<path d="M65.0303 82.1514C67.5328 82.1499 69.5805 80.1107 69.579 77.6082L69.5755 66.4692C69.574 63.9666 67.5348 61.919 65.0323 61.9204C62.5297 61.9219 60.4821 63.9611 60.4835 66.4636L60.4871 77.6026C60.4716 80.1149 62.5109 82.1626 65.0303 82.1514Z" fill="#EFEFED"/>
<path d="M68.4377 83.5219C67.4059 84.1176 66.2517 84.4232 65.0356 84.4262C63.2065 84.4222 61.5099 83.7102 60.2082 82.4321C58.9233 81.1441 58.2083 79.437 58.2123 77.6079L58.2087 66.4689C58.2017 62.7067 61.2647 59.6527 65.027 59.6457C68.7892 59.6386 71.8432 62.7017 71.8502 66.4639L71.8369 77.6127C71.8329 79.4417 71.121 81.1383 69.8428 82.44C69.4135 82.8683 68.9451 83.229 68.4377 83.5219ZM63.8931 64.5177C63.2165 64.9083 62.7619 65.6443 62.7511 66.485L62.7547 77.624C62.7477 78.237 62.9828 78.8004 63.4111 79.2297C63.8394 79.659 64.4049 79.8963 65.0178 79.9033C65.621 79.8933 66.1942 79.6752 66.6235 79.2469C67.0528 78.8186 67.2901 78.2531 67.2971 77.6401L67.2935 66.5011C67.2879 65.2414 66.2732 64.226 65.0135 64.2317C64.6185 64.2116 64.2314 64.3223 63.8931 64.5177Z" fill="#3B3A6D"/>
<path d="M44.5721 89.8808C47.0746 89.8794 49.1223 87.8401 49.1209 85.3376L49.1173 74.1986C49.1158 71.6961 47.0766 69.6484 44.5741 69.6499C42.0716 69.6513 40.0239 71.6906 40.0253 74.1931L40.0289 85.3321C40.0401 87.8515 42.0696 89.8823 44.5721 89.8808Z" fill="#EFEFED"/>
<path d="M47.9697 91.2345C46.9718 91.8106 45.8104 92.1429 44.5676 92.1387C40.8054 92.1458 37.7514 89.0827 37.7444 85.3205L37.7408 74.1815C37.7448 72.3524 38.4567 70.6559 39.7349 69.3541C41.0228 68.0692 42.73 67.3542 44.559 67.3582C46.3881 67.3622 48.0846 68.0741 49.3864 69.3523C50.6713 70.6402 51.3863 72.3474 51.3823 74.1764L51.3859 85.3154C51.3899 87.8615 50.0164 90.0528 47.9697 91.2345ZM44.5837 87.5963C45.8265 87.6005 46.8588 86.576 46.8532 85.3162L46.8497 74.1772C46.8566 73.5643 46.6215 73.0009 46.1933 72.5716C45.765 72.1423 45.1995 71.9049 44.5865 71.898C43.9736 71.891 43.4102 72.1261 42.9808 72.5544C42.5515 72.9827 42.3142 73.5482 42.3073 74.1611L42.3108 85.3001C42.3093 86.5865 43.324 87.6019 44.5837 87.5963Z" fill="#3B3A6D"/>
</svg>
