<svg width="200" height="200" viewBox="0 0 200 200" fill="none" xmlns="http://www.w3.org/2000/svg">
<g clip-path="url(#clip0_1_37)">
<path d="M91.5926 154.679L68.5848 152.061L68.5848 122.276L59.6981 122.276L59.6981 102.667L29.366 102.667L29.366 85.6746L91.5926 85.6746L91.5926 154.679Z" fill="#B6CDEF"/>
<path d="M94.5223 85.6746L94.5223 154.679C94.5223 155.518 94.1707 156.3 93.5457 156.866C92.9207 157.413 92.1004 157.686 91.2606 157.589L68.2528 154.972C66.7684 154.796 65.6551 153.546 65.6551 152.061L65.6551 125.186L59.6981 125.186C58.077 125.186 56.7684 123.878 56.7684 122.257L56.7684 105.577L29.366 105.577C27.7449 105.577 26.4364 104.268 26.4364 102.647L26.4364 85.6551C26.4364 84.034 27.7449 82.7254 29.366 82.7254L91.5731 82.7254C93.1942 82.7449 94.5223 84.0535 94.5223 85.6746ZM88.6629 151.397L88.6629 88.6043L32.2957 88.6043L32.2957 99.7371L59.6785 99.7371C61.2996 99.7371 62.6082 101.046 62.6082 102.667L62.6082 119.347L68.5653 119.347C70.1864 119.347 71.495 120.655 71.495 122.276L71.495 149.444L88.6629 151.397Z" fill="#0F53A8"/>
<path d="M123.995 44.3856L123.995 172.979L98.8582 172.979C91.9637 172.979 86.3582 167.393 86.3582 160.479L86.3582 62.1395L123.995 44.3856Z" fill="#B6CDEF"/>
<path d="M126.925 44.3856L126.925 172.979C126.925 174.6 125.616 175.909 123.995 175.909L98.8582 175.909C90.3621 175.909 83.4285 168.995 83.4285 160.479L83.4285 62.1395C83.4285 61.0067 84.073 59.9715 85.1082 59.4832L122.745 41.7098C123.643 41.2801 124.718 41.3387 125.557 41.8856C126.417 42.4324 126.925 43.3699 126.925 44.3856ZM121.065 170.05L121.065 48.9949L89.2879 63.9949L89.2879 160.479C89.2879 165.753 93.5848 170.05 98.8582 170.05L121.065 170.05Z" fill="#0F53A8"/>
<path d="M172.081 170.889L172.081 46.4754C172.081 46.4754 130.518 23.741 116.671 2.56915L116.671 192.843C116.671 192.843 141.495 177.081 172.081 170.889Z" fill="#B6CDEF"/>
<path d="M175.011 46.4754L175.011 170.889C175.011 172.276 174.034 173.487 172.667 173.761C142.999 179.757 118.487 195.167 118.253 195.323C117.354 195.889 116.202 195.929 115.264 195.421C114.327 194.913 113.741 193.917 113.741 192.862L113.741 2.56916C113.741 1.2801 114.6 0.127748 115.831 -0.243345C117.081 -0.614439 118.409 -0.126156 119.112 0.967594C132.432 21.2801 173.077 43.6824 173.487 43.8973C174.425 44.4051 175.011 45.4012 175.011 46.4754ZM169.151 168.507L169.151 48.1746C165.792 46.2606 157.315 41.3192 147.901 34.8543C135.538 26.3582 126.065 18.409 119.581 11.1043L119.581 187.725C122.432 186.124 126.534 183.936 131.632 181.534C140.499 177.374 154.014 171.846 169.151 168.507Z" fill="#0F53A8"/>
<path d="M105.167 53.2723L105.167 152.061L96.4559 152.061L96.4559 57.3739L105.167 53.2723Z" fill="#89B7F5"/>
<path d="M108.096 53.2723L108.096 152.061C108.096 153.682 106.788 154.991 105.167 154.991L96.4559 154.991C94.8348 154.991 93.5262 153.682 93.5262 152.061L93.5262 57.3739C93.5262 56.241 94.1707 55.2059 95.2059 54.7176L103.917 50.5965C104.815 50.1668 105.889 50.2254 106.729 50.7723C107.589 51.3192 108.096 52.2567 108.096 53.2723ZM102.237 149.132L102.237 57.8817L99.3856 59.2293L99.3856 149.132L102.237 149.132Z" fill="#0F53A8"/>
<path d="M67.0223 101.358L67.0223 74.6981L86.3582 74.6981L86.3582 101.358L67.0223 101.358Z" fill="#89B7F5"/>
<path d="M89.2879 74.6981L89.2879 101.358C89.2879 102.979 87.9793 104.288 86.3582 104.288L67.0223 104.288C65.4012 104.288 64.0926 102.979 64.0926 101.358L64.0926 74.6981C64.0926 73.077 65.4012 71.7684 67.0223 71.7684L86.3582 71.7684C87.9793 71.7684 89.2879 73.077 89.2879 74.6981ZM83.4285 98.4285L83.4285 77.6278L69.952 77.6278L69.952 98.4285L83.4285 98.4285Z" fill="#0F53A8"/>
<path d="M140.714 166.007C141.216 166.007 141.714 165.908 142.179 165.715C142.643 165.523 143.065 165.241 143.421 164.885C143.776 164.53 144.058 164.108 144.25 163.643C144.443 163.179 144.542 162.681 144.542 162.179C144.542 161.676 144.443 161.178 144.25 160.714C144.058 160.249 143.776 159.827 143.421 159.472C143.065 159.116 142.643 158.834 142.179 158.642C141.714 158.449 141.216 158.35 140.714 158.35C140.211 158.35 139.713 158.449 139.249 158.642C138.784 158.834 138.362 159.116 138.007 159.472C137.651 159.827 137.369 160.249 137.177 160.714C136.985 161.178 136.886 161.676 136.886 162.179C136.886 162.681 136.985 163.179 137.177 163.643C137.369 164.108 137.651 164.53 138.007 164.885C138.362 165.241 138.784 165.523 139.249 165.715C139.713 165.908 140.211 166.007 140.714 166.007Z" fill="#89B7F5"/>
<path d="M146.514 162.179C146.514 165.362 143.917 167.96 140.733 167.96C137.55 167.96 134.952 165.362 134.952 162.179C134.952 158.995 137.55 156.397 140.733 156.397C143.917 156.397 146.514 158.975 146.514 162.179ZM138.839 162.179C138.839 163.214 139.679 164.054 140.714 164.054C141.749 164.054 142.589 163.214 142.589 162.179C142.589 161.143 141.749 160.304 140.714 160.304C139.679 160.304 138.839 161.143 138.839 162.179Z" fill="#0F53A8"/>
<path d="M140.714 149.776C141.729 149.776 142.703 149.373 143.421 148.655C144.139 147.937 144.542 146.963 144.542 145.948C144.542 144.933 144.139 143.959 143.421 143.241C142.703 142.523 141.729 142.12 140.714 142.12C140.211 142.12 139.713 142.219 139.249 142.411C138.784 142.604 138.362 142.886 138.007 143.241C137.651 143.597 137.369 144.019 137.177 144.483C136.985 144.948 136.886 145.445 136.886 145.948C136.886 146.451 136.985 146.949 137.177 147.413C137.369 147.877 137.651 148.299 138.007 148.655C138.362 149.01 138.784 149.292 139.249 149.485C139.713 149.677 140.211 149.776 140.714 149.776Z" fill="#89B7F5"/>
<path d="M146.514 145.948C146.514 149.132 143.917 151.729 140.733 151.729C137.55 151.729 134.952 149.132 134.952 145.948C134.952 142.764 137.55 140.167 140.733 140.167C143.917 140.167 146.514 142.745 146.514 145.948ZM138.839 145.948C138.839 146.983 139.679 147.823 140.714 147.823C141.749 147.823 142.589 146.983 142.589 145.948C142.589 144.913 141.749 144.073 140.714 144.073C139.679 144.073 138.839 144.913 138.839 145.948Z" fill="#0F53A8"/>
<path d="M140.714 133.546C141.729 133.546 142.703 133.142 143.421 132.424C144.139 131.707 144.542 130.733 144.542 129.718C144.542 128.702 144.139 127.729 143.421 127.011C142.703 126.293 141.729 125.889 140.714 125.889C139.698 125.889 138.725 126.293 138.007 127.011C137.289 127.729 136.886 128.702 136.886 129.718C136.886 130.733 137.289 131.707 138.007 132.424C138.725 133.142 139.698 133.546 140.714 133.546Z" fill="#89B7F5"/>
<path d="M146.514 129.718C146.514 132.901 143.917 135.499 140.733 135.499C137.55 135.499 134.952 132.901 134.952 129.718C134.952 126.534 137.55 123.936 140.733 123.936C143.917 123.936 146.514 126.514 146.514 129.718ZM138.839 129.718C138.839 130.753 139.679 131.593 140.714 131.593C141.749 131.593 142.589 130.753 142.589 129.718C142.589 128.682 141.749 127.843 140.714 127.843C139.679 127.843 138.839 128.682 138.839 129.718Z" fill="#0F53A8"/>
<path d="M140.714 117.315C141.729 117.315 142.703 116.912 143.421 116.194C144.139 115.476 144.542 114.502 144.542 113.487C144.542 112.472 144.139 111.498 143.421 110.78C142.703 110.062 141.729 109.659 140.714 109.659C139.698 109.659 138.725 110.062 138.007 110.78C137.289 111.498 136.886 112.472 136.886 113.487C136.886 114.502 137.289 115.476 138.007 116.194C138.725 116.912 139.698 117.315 140.714 117.315Z" fill="#89B7F5"/>
<path d="M146.514 113.487C146.514 116.671 143.917 119.268 140.733 119.268C137.55 119.268 134.952 116.671 134.952 113.487C134.952 110.304 137.55 107.706 140.733 107.706C143.917 107.706 146.514 110.284 146.514 113.487ZM138.839 113.487C138.839 114.522 139.679 115.362 140.714 115.362C141.749 115.362 142.589 114.522 142.589 113.487C142.589 112.452 141.749 111.612 140.714 111.612C139.679 111.612 138.839 112.452 138.839 113.487Z" fill="#0F53A8"/>
<path d="M140.714 101.085C141.216 101.085 141.714 100.986 142.179 100.793C142.643 100.601 143.065 100.319 143.421 99.9636C143.776 99.6081 144.058 99.1861 144.25 98.7216C144.443 98.2572 144.542 97.7594 144.542 97.2567C144.542 96.7539 144.443 96.2561 144.25 95.7917C144.058 95.3272 143.776 94.9052 143.421 94.5498C143.065 94.1943 142.643 93.9123 142.179 93.7199C141.714 93.5276 141.216 93.4285 140.714 93.4285C139.698 93.4285 138.725 93.8318 138.007 94.5498C137.289 95.2677 136.886 96.2414 136.886 97.2567C136.886 98.2719 137.289 99.2456 138.007 99.9636C138.725 100.681 139.698 101.085 140.714 101.085Z" fill="#89B7F5"/>
<path d="M146.514 97.2567C146.514 100.44 143.917 103.038 140.733 103.038C137.55 103.038 134.952 100.44 134.952 97.2567C134.952 94.0731 137.55 91.4754 140.733 91.4754C143.917 91.4754 146.514 94.0535 146.514 97.2567ZM138.839 97.2567C138.839 98.2918 139.679 99.1317 140.714 99.1317C141.749 99.1317 142.589 98.2918 142.589 97.2567C142.589 96.2215 141.749 95.3817 140.714 95.3817C139.679 95.3817 138.839 96.2215 138.839 97.2567Z" fill="#0F53A8"/>
<path d="M140.714 84.8543C141.729 84.8543 142.703 84.451 143.421 83.7331C144.138 83.0152 144.542 82.0415 144.542 81.0262C144.542 80.0109 144.138 79.0372 143.421 78.3193C142.703 77.6014 141.729 77.1981 140.714 77.1981C139.698 77.1981 138.725 77.6014 138.007 78.3193C137.289 79.0372 136.886 80.0109 136.886 81.0262C136.886 82.0415 137.289 83.0152 138.007 83.7331C138.725 84.451 139.698 84.8543 140.714 84.8543Z" fill="#89B7F5"/>
<path d="M146.514 81.0262C146.514 84.2098 143.917 86.8074 140.733 86.8074C137.55 86.8074 134.952 84.2098 134.952 81.0262C134.952 77.8426 137.55 75.2449 140.733 75.2449C143.917 75.2449 146.514 77.8231 146.514 81.0262ZM138.839 81.0262C138.839 82.0614 139.679 82.9012 140.714 82.9012C141.749 82.9012 142.589 82.0614 142.589 81.0262C142.589 79.991 141.749 79.1512 140.714 79.1512C139.679 79.1512 138.839 79.991 138.839 81.0262Z" fill="#0F53A8"/>
<path d="M140.714 68.6238C141.729 68.6238 142.703 68.2205 143.421 67.5026C144.138 66.7847 144.542 65.811 144.542 64.7957C144.542 63.7804 144.138 62.8067 143.421 62.0888C142.703 61.3709 141.729 60.9676 140.714 60.9676C139.698 60.9676 138.725 61.3709 138.007 62.0888C137.289 62.8067 136.886 63.7804 136.886 64.7957C136.886 65.811 137.289 66.7847 138.007 67.5026C138.725 68.2205 139.698 68.6238 140.714 68.6238Z" fill="#89B7F5"/>
<path d="M146.514 64.7957C146.514 67.9793 143.917 70.577 140.733 70.577C137.55 70.577 134.952 67.9793 134.952 64.7957C134.952 61.6121 137.55 59.0145 140.733 59.0145C143.917 59.0145 146.514 61.5926 146.514 64.7957ZM138.839 64.7957C138.839 65.8309 139.679 66.6707 140.714 66.6707C141.749 66.6707 142.589 65.8309 142.589 64.7957C142.589 63.7606 141.749 62.9207 140.714 62.9207C139.679 62.9207 138.839 63.7606 138.839 64.7957Z" fill="#0F53A8"/>
<path d="M140.714 52.3934C141.729 52.3934 142.703 51.9901 143.421 51.2721C144.138 50.5542 144.542 49.5805 144.542 48.5653C144.542 47.55 144.138 46.5763 143.421 45.8584C142.703 45.1404 141.729 44.7371 140.714 44.7371C139.698 44.7371 138.725 45.1404 138.007 45.8584C137.289 46.5763 136.886 47.55 136.886 48.5653C136.886 49.5805 137.289 50.5542 138.007 51.2721C138.725 51.9901 139.698 52.3934 140.714 52.3934Z" fill="#89B7F5"/>
<path d="M146.514 48.5653C146.514 51.7489 143.917 54.3465 140.733 54.3465C137.55 54.3465 134.952 51.7489 134.952 48.5653C134.952 45.3817 137.53 42.7645 140.714 42.7645C143.897 42.7645 146.514 45.3621 146.514 48.5653ZM138.839 48.5653C138.839 49.6004 139.679 50.4403 140.714 50.4403C141.749 50.4403 142.589 49.6004 142.589 48.5653C142.589 47.5301 141.749 46.6903 140.714 46.6903C139.679 46.6903 138.839 47.5301 138.839 48.5653Z" fill="#0F53A8"/>
</g>
<defs>
<clipPath id="clip0_1_37">
<rect width="200" height="200" fill="white"/>
</clipPath>
</defs>
</svg>
