<svg width="200" height="200" viewBox="0 0 200 200" fill="none" xmlns="http://www.w3.org/2000/svg">
<path d="M160.037 103.146L160.037 145.24L132.498 145.24L132.498 103.146L160.037 103.146Z" fill="#EE8C98"/>
<path d="M160.037 133.121L160.037 145.238L132.498 145.238L132.498 133.121L160.037 133.121Z" fill="#D96478"/>
<path d="M132.498 124.193L132.498 166.287L104.959 166.287L104.959 124.193L132.498 124.193ZM132.498 82.0996L132.498 124.193L104.959 124.193L104.959 82.0996L132.498 82.0996Z" fill="#EE8C98"/>
<path d="M132.498 112.074L132.498 124.191L104.959 124.191L104.959 112.074L132.498 112.074ZM132.498 154.168L132.498 166.285L104.959 166.285L104.959 154.168L132.498 154.168Z" fill="#D96478"/>
<path d="M102.453 124.193L102.453 82.0996C102.453 80.7168 103.574 79.5957 104.957 79.5957L132.496 79.5957C133.879 79.5957 135 80.7168 135 82.0996L135 124.193C135 125.576 133.879 126.697 132.496 126.697L104.957 126.697C103.574 126.697 102.453 125.576 102.453 124.193ZM107.463 84.6035L107.463 121.687L129.992 121.687L129.992 84.6035L107.463 84.6035Z" fill="#49416F"/>
<path d="M102.453 166.285L102.453 124.193C102.453 122.811 103.574 121.689 104.957 121.689L132.496 121.689C133.879 121.689 135 122.811 135 124.193L135 166.287C135 167.67 133.879 168.791 132.496 168.791L104.957 168.791C103.574 168.791 102.453 167.67 102.453 166.285ZM107.463 126.697L107.463 163.781L129.992 163.781L129.992 126.697L107.463 126.697Z" fill="#49416F"/>
<path d="M129.992 145.238L129.992 103.146C129.992 101.764 131.113 100.643 132.496 100.643L160.035 100.643C161.418 100.643 162.539 101.764 162.539 103.146L162.539 145.24C162.539 146.623 161.418 147.744 160.035 147.744L132.496 147.744C131.113 147.744 129.992 146.623 129.992 145.238ZM135.002 105.65L135.002 142.734L157.533 142.734L157.533 105.65L135.002 105.65Z" fill="#49416F"/>
<path d="M143.764 145.238L143.764 103.146C143.764 101.764 144.885 100.643 146.268 100.643C147.65 100.643 148.771 101.764 148.771 103.146L148.771 145.24C148.771 146.623 147.65 147.744 146.268 147.744C144.885 147.744 143.764 146.623 143.764 145.238ZM116.223 124.088L116.223 82.4121C116.223 81.0293 117.344 79.9082 118.727 79.9082C120.109 79.9082 121.23 81.0293 121.23 82.4121L121.23 124.088C121.23 125.471 120.109 126.592 118.727 126.592C117.344 126.592 116.223 125.471 116.223 124.088Z" fill="#49416F"/>
<path d="M120.445 123.49L105.004 116.041L105.004 28.4336L84.752 28.4336C71.7637 28.4336 61.2344 38.9629 61.2344 51.9512L61.2344 149.834C61.2344 162.822 71.7637 173.352 84.752 173.352L120.445 173.352L120.445 123.49Z" fill="white"/>
<path d="M120.445 160.227L63.6524 160.227C67.4902 168.002 75.4941 173.352 84.75 173.352L120.445 173.352L120.445 160.227Z" fill="#D0E2F3"/>
<path d="M95.2285 28.4336L84.752 28.4336C71.7637 28.4336 61.2344 38.9629 61.2344 51.9512L61.2344 149.834C61.2344 162.822 71.7637 173.352 84.752 173.352L95.2285 173.352L95.2285 28.4336Z" fill="#D0E2F3"/>
<path d="M63.6524 160.227L63.6543 160.229C63.8652 160.656 64.0918 161.074 64.3262 161.486C64.373 161.57 64.4219 161.652 64.4688 161.736C64.5762 161.92 64.6875 162.104 64.8008 162.283C64.8496 162.361 64.9004 162.439 64.9492 162.516C65.168 162.855 65.3945 163.191 65.6309 163.52C65.6758 163.582 65.7188 163.645 65.7637 163.707C65.8867 163.873 66.0117 164.039 66.1367 164.201C66.2051 164.291 66.2754 164.379 66.3457 164.467C66.4727 164.627 66.5996 164.785 66.7305 164.941L66.8477 165.076C67.1055 165.379 67.3691 165.672 67.6426 165.961C67.7305 166.055 67.8203 166.148 67.9102 166.24C68.041 166.375 68.1738 166.508 68.3086 166.639C68.4102 166.738 68.5137 166.836 68.6172 166.934C68.8262 167.131 69.0391 167.326 69.2559 167.516C69.3809 167.625 69.5059 167.736 69.6348 167.844C69.7656 167.953 69.8965 168.061 70.0293 168.166C70.1582 168.27 70.2871 168.371 70.416 168.471C70.543 168.568 70.6699 168.668 70.7988 168.764C71.0312 168.936 71.2676 169.104 71.5078 169.268C71.625 169.348 71.7441 169.424 71.8633 169.502C72.0254 169.607 72.1855 169.713 72.3496 169.814C72.4727 169.891 72.5977 169.969 72.7227 170.043C72.9199 170.16 73.1191 170.275 73.3223 170.387C73.4434 170.455 73.5664 170.523 73.6895 170.588C73.9277 170.715 74.168 170.838 74.4102 170.957C74.7292 171.112 75.0516 171.261 75.377 171.402C75.4805 171.447 75.584 171.494 75.6895 171.537C75.9863 171.66 76.2852 171.779 76.5879 171.891C76.6777 171.924 76.7715 171.955 76.8613 171.988C77.0977 172.072 77.3359 172.154 77.5762 172.23C77.6816 172.264 77.7891 172.299 77.8945 172.33C78.1914 172.42 78.4902 172.506 78.793 172.586C78.8242 172.594 78.8555 172.604 78.8867 172.611C79.2148 172.695 79.5449 172.77 79.8789 172.84C79.9805 172.861 80.082 172.881 80.1816 172.9C80.4492 172.953 80.7168 173 80.9863 173.045C81.0703 173.059 81.1523 173.074 81.2363 173.086C81.5801 173.137 81.9258 173.182 82.2734 173.217C82.3516 173.225 82.4316 173.23 82.5117 173.238C82.7949 173.266 83.0781 173.287 83.3633 173.303C83.8231 173.33 84.2835 173.344 84.7441 173.346L95.2207 173.346L95.2207 160.221L63.6524 160.221L63.6524 160.227Z" fill="#A0C8EA"/>
<path d="M58.7285 149.834L58.7285 51.9531C58.7285 37.6035 70.4023 25.9297 84.752 25.9297L105.004 25.9297C106.387 25.9297 107.508 27.0508 107.508 28.4336L107.508 114.469L121.533 121.234C122.398 121.652 122.949 122.529 122.949 123.49L122.949 173.352C122.949 174.734 121.828 175.855 120.445 175.855L84.752 175.855C70.4023 175.857 58.7285 164.184 58.7285 149.834ZM102.498 30.9395L84.75 30.9395C73.1641 30.9395 63.7363 40.3652 63.7363 51.9531L63.7363 149.836C63.7363 161.422 73.1621 170.85 84.75 170.85L117.941 170.85L117.941 125.064L103.916 118.299C103.492 118.094 103.134 117.774 102.884 117.375C102.633 116.976 102.5 116.514 102.5 116.043L102.5 30.9395L102.498 30.9395Z" fill="#49416F"/>
<path d="M80.9043 120.635C76.3574 121.496 72.4473 117.584 73.3086 113.039C73.7871 110.514 75.8535 108.447 78.3789 107.969C82.9258 107.107 86.8379 111.02 85.9746 115.564C85.4941 118.092 83.4297 120.156 80.9043 120.635ZM80.9043 140.371C76.3574 141.232 72.4473 137.32 73.3086 132.775C73.7871 130.25 75.8535 128.184 78.3789 127.705C82.9258 126.844 86.8359 130.756 85.9746 135.301C85.4941 137.826 83.4297 139.893 80.9043 140.371ZM80.9043 160.107C76.3574 160.969 72.4473 157.057 73.3086 152.512C73.7871 149.986 75.8535 147.92 78.3789 147.441C82.9258 146.58 86.8359 150.492 85.9746 155.037C85.4941 157.563 83.4297 159.629 80.9043 160.107Z" fill="white"/>
<path d="M70.6836 114.303C70.6836 109.363 74.7012 105.346 79.6406 105.346C84.5801 105.346 88.5977 109.363 88.5977 114.303C88.5977 119.242 84.5801 123.26 79.6406 123.26C74.7012 123.26 70.6836 119.242 70.6836 114.303ZM83.5898 114.303C83.5898 112.125 81.8184 110.355 79.6426 110.355C77.4668 110.355 75.6953 112.127 75.6953 114.303C75.6953 116.48 77.4668 118.25 79.6426 118.25C81.8184 118.25 83.5898 116.48 83.5898 114.303ZM70.6836 134.039C70.6836 129.1 74.7012 125.082 79.6406 125.082C84.5801 125.082 88.5977 129.1 88.5977 134.039C88.5977 138.979 84.5801 142.996 79.6406 142.996C74.7012 142.996 70.6836 138.979 70.6836 134.039ZM83.5898 134.039C83.5898 131.861 81.8184 130.092 79.6426 130.092C77.4668 130.092 75.6953 131.863 75.6953 134.039C75.6953 136.217 77.4668 137.986 79.6426 137.986C81.8184 137.986 83.5898 136.215 83.5898 134.039ZM70.6836 153.773C70.6836 148.834 74.7012 144.816 79.6406 144.816C84.5801 144.816 88.5977 148.834 88.5977 153.773C88.5977 158.713 84.5801 162.73 79.6406 162.73C74.7012 162.732 70.6836 158.713 70.6836 153.773ZM83.5898 153.773C83.5898 151.596 81.8184 149.826 79.6426 149.826C77.4668 149.826 75.6953 151.598 75.6953 153.773C75.6953 155.949 77.4668 157.721 79.6426 157.721C81.8184 157.721 83.5898 155.951 83.5898 153.773ZM92.7227 173.354L92.7227 28.4336C92.7227 27.0508 93.8438 25.9297 95.2266 25.9297C96.6094 25.9297 97.7305 27.0508 97.7305 28.4336L97.7305 173.352C97.7305 174.734 96.6094 175.855 95.2266 175.855C93.8457 175.857 92.7227 174.736 92.7227 173.354Z" fill="#49416F"/>
<path d="M48.1152 145.182L48.1152 82.7324C48.1152 81.3496 49.2363 80.2285 50.6191 80.2285C52.002 80.2285 53.1231 81.3496 53.1231 82.7324L53.1231 145.182C53.1231 146.564 52.002 147.686 50.6191 147.686C49.2363 147.686 48.1152 146.564 48.1152 145.182Z" fill="#49416F"/>
<path d="M37.5 125.855L37.5 75.9316C37.5 74.5488 38.6211 73.4277 40.0039 73.4277C41.3867 73.4277 42.5078 74.5488 42.5078 75.9316L42.5078 125.857C42.5078 127.24 41.3867 128.361 40.0039 128.361C38.6211 128.361 37.5 127.24 37.5 125.855Z" fill="#49416F"/>
<path d="M48.1152 69.2773L48.1152 56.6055C48.1152 55.2227 49.2363 54.1016 50.6191 54.1016C52.002 54.1016 53.1231 55.2227 53.1231 56.6055L53.1231 69.2773C53.1231 70.6602 52.002 71.7812 50.6191 71.7812C49.2363 71.7812 48.1152 70.6602 48.1152 69.2773Z" fill="#49416F"/>
<path d="M58.7285 185.723L58.7285 34.5039C58.7285 33.1211 59.8496 32 61.2324 32C62.6152 32 63.7363 33.1211 63.7363 34.5039L63.7363 185.723C63.7363 187.105 62.6152 188.227 61.2324 188.227C59.8496 188.227 58.7285 187.105 58.7285 185.723Z" fill="#49416F"/>
<path d="M58.7285 25.9492L58.7285 16.0645C58.7285 14.6816 59.8496 13.5605 61.2324 13.5605C62.6152 13.5605 63.7363 14.6816 63.7363 16.0645L63.7363 25.9492C63.7363 27.332 62.6152 28.4531 61.2324 28.4531C59.8496 28.4531 58.7285 27.332 58.7285 25.9492Z" fill="#49416F"/>
<path d="M113.951 35.7227C113.951 34.3398 115.072 33.2188 116.455 33.2188L134.566 33.2188C135.949 33.2188 137.07 34.3398 137.07 35.7227C137.07 37.1055 135.949 38.2266 134.566 38.2266L116.455 38.2266C115.072 38.2266 113.951 37.1055 113.951 35.7227ZM113.951 49.1797C113.951 47.7969 115.072 46.6758 116.455 46.6758L134.566 46.6758C135.949 46.6758 137.07 47.7969 137.07 49.1797C137.07 50.5625 135.949 51.6836 134.566 51.6836L116.455 51.6836C115.072 51.6856 113.951 50.5625 113.951 49.1797ZM113.951 62.6367C113.951 61.2539 115.072 60.1328 116.455 60.1328L134.566 60.1328C135.949 60.1328 137.07 61.2539 137.07 62.6367C137.07 64.0195 135.949 65.1406 134.566 65.1406L116.455 65.1406C115.072 65.1426 113.951 64.0215 113.951 62.6367Z" fill="#49416F"/>
<path d="M146.879 28.4336L146.879 69.9258L134.566 69.9258L134.566 28.4336L146.879 28.4336Z" fill="#EE8C98"/>
<path d="M146.879 60.5606L146.879 69.9258L134.566 69.9258L134.566 60.5606L146.879 60.5606Z" fill="#D96478"/>
<path d="M132.063 69.9258L132.063 28.4336C132.063 27.0508 133.184 25.9297 134.566 25.9297L146.879 25.9297C148.262 25.9297 149.383 27.0508 149.383 28.4336L149.383 69.9258C149.383 71.3086 148.262 72.4297 146.879 72.4297L134.566 72.4297C133.184 72.4297 132.063 71.3086 132.063 69.9258ZM137.072 30.9395L137.072 67.4219L144.375 67.4219L144.375 30.9395L137.072 30.9395Z" fill="#49416F"/>
<path d="M117.316 28.4336L117.316 69.9258L105.004 69.9258L105.004 28.4336L117.316 28.4336Z" fill="#EE8C98"/>
<path d="M117.316 60.5606L117.316 69.9258L105.004 69.9258L105.004 60.5606L117.316 60.5606Z" fill="#D96478"/>
<path d="M102.5 69.9258L102.5 28.4336C102.5 27.0508 103.621 25.9297 105.004 25.9297L117.316 25.9297C118.699 25.9297 119.82 27.0508 119.82 28.4336L119.82 69.9258C119.82 71.3086 118.699 72.4297 117.316 72.4297L105.004 72.4297C103.623 72.4297 102.5 71.3086 102.5 69.9258ZM107.51 30.9395L107.51 67.4219L114.813 67.4219L114.813 30.9395L107.51 30.9395Z" fill="#49416F"/>
</svg>
