<svg width="200" height="200" viewBox="0 0 200 200" fill="none" xmlns="http://www.w3.org/2000/svg">
<g clip-path="url(#clip0_1_192)">
<path d="M34.9185 50.7071C32.853 50.7069 30.8078 51.1135 28.8995 51.9037C26.9912 52.694 25.2573 53.8524 23.7967 55.3128C22.3361 56.7732 21.1775 58.507 20.3871 60.4152C19.5966 62.3234 19.1897 64.3686 19.1897 66.4341C19.1897 68.4995 19.5966 70.5447 20.3871 72.4529C21.1775 74.3611 22.3361 76.0949 23.7967 77.5553C25.2573 79.0157 26.9912 80.1741 28.8995 80.9644C30.8078 81.7546 32.853 82.1613 34.9185 82.161C36.9839 82.1613 39.0292 81.7546 40.9375 80.9644C42.8457 80.1741 44.5797 79.0157 46.0402 77.5553C47.5008 76.0949 48.6594 74.3611 49.4499 72.4529C50.2403 70.5447 50.6472 68.4995 50.6472 66.4341C50.6472 64.3686 50.2403 62.3234 49.4499 60.4152C48.6594 58.507 47.5008 56.7732 46.0402 55.3128C44.5797 53.8524 42.8457 52.694 40.9375 51.9037C39.0292 51.1135 36.9839 50.7069 34.9185 50.7071Z" fill="#C2C2CF"/>
<path d="M47.9303 66.4341C47.9303 73.6091 42.0935 79.4459 34.9185 79.4459C27.7442 79.4459 21.9082 73.6091 21.9082 66.4341C21.9082 59.2591 27.7442 53.4223 34.9185 53.4223C42.0935 53.423 47.9303 59.2598 47.9303 66.4341ZM34.9185 47.9927C24.7498 47.9927 16.4771 56.2662 16.4771 66.4348C16.4771 76.6035 24.7498 84.877 34.9185 84.877C45.0871 84.877 53.3606 76.6035 53.3606 66.4348C53.3606 56.2662 45.0871 47.9927 34.9185 47.9927Z" fill="#6E6E96"/>
<path opacity="0.15" d="M30.8581 54.0747L30.8581 78.7942L36.8571 82.0385L36.8571 50.8304L30.8581 54.0747Z" fill="#6E6E96"/>
<path d="M34.9184 16.4356C32.8532 16.4356 30.8081 16.8424 28.9 17.6328C26.9919 18.4231 25.2582 19.5816 23.7978 21.0419C22.3374 22.5023 21.179 24.2361 20.3886 26.1441C19.5983 28.0522 19.1915 30.0973 19.1915 32.1626C19.1915 34.2279 19.5983 36.2729 20.3886 38.181C21.179 40.0891 22.3374 41.8228 23.7978 43.2832C25.2582 44.7436 26.9919 45.9021 28.9 46.6924C30.8081 47.4828 32.8531 47.8896 34.9184 47.8896C36.9837 47.8896 39.0288 47.4828 40.9369 46.6924C42.845 45.9021 44.5787 44.7436 46.0391 43.2832C47.4995 41.8228 48.6579 40.0891 49.4483 38.181C50.2386 36.273 50.6454 34.2279 50.6454 32.1626C50.6454 30.0973 50.2386 28.0522 49.4483 26.1441C48.6579 24.2361 47.4995 22.5023 46.0391 21.0419C44.5787 19.5816 42.845 18.4231 40.9369 17.6328C39.0288 16.8424 36.9837 16.4356 34.9184 16.4356Z" fill="#C2C2CF"/>
<path d="M47.9303 32.1626C47.9303 39.3376 42.0935 45.1744 34.9185 45.1744C27.7442 45.1744 21.9082 39.3376 21.9082 32.1626C21.9082 24.9876 27.7442 19.1508 34.9185 19.1508C42.0935 19.1508 47.9303 24.9884 47.9303 32.1626ZM34.9185 13.7205C24.7498 13.7205 16.4771 21.9939 16.4771 32.1626C16.4771 42.3312 24.7498 50.6047 34.9185 50.6047C45.0871 50.6047 53.3606 42.3312 53.3606 32.1626C53.3606 21.9939 45.0871 13.7205 34.9185 13.7205Z" fill="#6E6E96"/>
<path opacity="0.15" d="M30.8581 19.8032L30.8581 44.522L36.8571 47.7662L36.8571 16.559L30.8581 19.8032Z" fill="#6E6E96"/>
<path d="M144.544 62.0681L123.456 62.0681L123.456 44.7896L144.544 44.7896" fill="#F0F0FF"/>
<path d="M144.544 59.3529L123.456 59.3529L126.171 62.0681L126.171 44.7896L123.456 47.5048L144.544 47.5048L144.544 42.0745L120.741 42.0745L120.741 64.7833L144.544 64.7833L144.544 59.3529Z" fill="#6E6E96"/>
<path d="M150.023 70.6627C145.757 70.6627 142.266 67.1718 142.266 62.9051L142.266 43.4522C142.266 39.1855 145.757 35.6946 150.023 35.6946L152.364 35.6946C156.63 35.6946 160.121 39.1855 160.121 43.4522L160.121 62.9044C160.121 67.171 156.63 70.662 152.364 70.662L150.023 70.6627ZM122.885 33.0454C122.885 33.0454 124.436 5.0436 99.5376 5.0436C69.3575 5.0436 74.0136 33.0454 74.0136 33.0454L74.0136 136.849L122.885 136.849L122.885 33.0454Z" fill="#F0F0FF"/>
<path opacity="0.15" d="M90.303 6.11182C70.39 11.2272 74.0136 33.0454 74.0136 33.0454L74.0136 136.849L90.303 136.849L90.303 6.11182Z" fill="#6E6E96"/>
<path d="M125.595 33.1959C125.628 32.5993 126.307 18.4945 117.789 9.49025C113.293 4.73795 107.152 2.32844 99.5384 2.32844C89.4838 2.32844 81.8938 5.26857 76.9801 11.0666C69.2342 20.2074 71.2449 32.9523 71.3365 33.4907C71.3116 33.3433 71.2992 33.1943 71.2992 33.0454L71.2992 136.849C71.2992 138.349 72.5141 139.564 74.0144 139.564L122.885 139.564C124.385 139.564 125.6 138.349 125.6 136.849L125.6 33.0454C125.6 33.095 125.598 33.1455 125.595 33.1959ZM122.885 134.134L74.0136 134.134C74.7337 134.134 75.4243 134.42 75.9335 134.929C76.4427 135.438 76.7288 136.129 76.7288 136.849L76.7288 33.0454C76.7288 32.8965 76.7156 32.7475 76.6908 32.6001C76.6745 32.4985 75.0221 21.7434 81.1459 14.549C84.9821 10.0434 91.1703 7.75876 99.5376 7.75876C105.6 7.75876 110.415 9.59731 113.843 13.2224C120.773 20.5464 120.181 32.7723 120.174 32.8949C120.171 32.9446 120.169 32.995 120.169 33.0454L120.169 136.849C120.169 136.492 120.239 136.139 120.376 135.81C120.512 135.48 120.712 135.181 120.964 134.929C121.217 134.677 121.516 134.477 121.846 134.34C122.175 134.204 122.528 134.134 122.885 134.134Z" fill="#6E6E96"/>
<path opacity="0.53" d="M193.867 149.561L193.867 171.138C193.867 171.858 194.153 172.548 194.662 173.057C195.171 173.567 195.862 173.853 196.582 173.853C197.302 173.853 197.993 173.567 198.502 173.057C199.011 172.548 199.297 171.858 199.297 171.138L199.297 149.561C199.297 148.841 199.011 148.151 198.502 147.641C197.993 147.132 197.302 146.846 196.582 146.846C195.862 146.846 195.171 147.132 194.662 147.641C194.153 148.151 193.867 148.841 193.867 149.561Z" fill="#6E6E96"/>
<path d="M76.7272 193.479L76.7272 25.1396C76.7273 24.783 76.6572 24.4299 76.5208 24.1004C76.3844 23.7709 76.1844 23.4715 75.9322 23.2193C75.6801 22.9671 75.3808 22.767 75.0513 22.6305C74.7218 22.494 74.3687 22.4238 74.0121 22.4238C73.6555 22.4238 73.3023 22.494 72.9729 22.6305C72.6434 22.767 72.3441 22.9671 72.0919 23.2193C71.8398 23.4715 71.6398 23.7709 71.5034 24.1004C71.367 24.4299 71.2968 24.783 71.2969 25.1396L71.2969 193.479C71.2968 193.836 71.367 194.189 71.5034 194.519C71.6398 194.848 71.8398 195.148 72.0919 195.4C72.3441 195.652 72.6434 195.852 72.9729 195.988C73.3023 196.125 73.6554 196.195 74.0121 196.195C74.3687 196.195 74.7218 196.125 75.0513 195.988C75.3808 195.852 75.6801 195.652 75.9322 195.4C76.1844 195.148 76.3843 194.848 76.5208 194.519C76.6572 194.189 76.7273 193.836 76.7272 193.479Z" fill="#6E6E96"/>
<path d="M74.0121 147.497L74.0121 23.547L39.5723 9.68497L39.5723 147.497L74.0121 147.497Z" fill="#FFDB7F"/>
<path d="M71.2969 30.1821L50.3514 25.1396L50.3514 75.0791L40.6544 78.667L41.0919 11.9354L71.2969 23.547L71.2969 30.1821Z" fill="#DFB870"/>
<path d="M76.7272 147.497L76.7272 23.547C76.7273 23.0054 76.5655 22.4762 76.2624 22.0274C75.9594 21.5785 75.5291 21.2305 75.0268 21.0281L40.5862 7.16607C40.1741 7.00019 39.7276 6.93795 39.2858 6.98481C38.8441 7.03167 38.4206 7.1862 38.0525 7.43485C37.6844 7.68351 37.3829 8.01868 37.1745 8.41099C36.9661 8.80329 36.8571 9.24074 36.8571 9.68496L36.8571 147.497C36.8571 148.217 37.1432 148.908 37.6523 149.417C38.1615 149.926 38.8522 150.212 39.5723 150.212L74.0129 150.212C74.7328 150.212 75.4232 149.926 75.9323 149.417C76.4413 148.907 76.7272 148.217 76.7272 147.497ZM42.2874 147.497L42.2874 9.68496C42.2869 10.129 42.1775 10.5661 41.969 10.9581C41.7604 11.3501 41.459 11.685 41.091 11.9336C40.7231 12.1821 40.2998 12.3367 39.8583 12.3838C39.4168 12.4309 38.9705 12.3691 38.5583 12.2039L72.9989 26.0659C72.4966 25.8635 72.0663 25.5155 71.7633 25.0667C71.4602 24.6178 71.2984 24.0886 71.2985 23.547L71.2985 147.497C71.2984 147.14 71.3685 146.787 71.5049 146.458C71.6414 146.128 71.8413 145.829 72.0935 145.577C72.3456 145.325 72.645 145.125 72.9745 144.988C73.3039 144.852 73.657 144.782 74.0136 144.782L39.573 144.782C40.293 144.782 40.9834 145.068 41.4924 145.577C42.0015 146.087 42.2874 146.777 42.2874 147.497Z" fill="#6E6E96"/>
<path d="M164 123.661C168.267 123.661 171.758 127.152 171.758 131.419L171.758 185.722C171.758 189.988 168.267 193.479 164 193.479L47.6363 193.479C43.3696 193.479 39.8787 189.988 39.8787 185.722L39.8787 131.419C39.8787 127.152 43.3696 123.661 47.6363 123.661L164 123.661Z" fill="#F0F0FF"/>
<path d="M161.091 141.31L161.091 195.031L161.673 195.031C165.94 195.031 169.43 191.54 169.43 187.273L169.43 132.97C169.43 128.703 165.94 125.213 161.673 125.213L45.309 125.213C41.0423 125.213 37.5514 128.703 37.5514 132.97L37.5514 133.552L115.903 133.552L115.903 183.458L161.091 183.458L125.6 133.552L153.333 133.552C157.6 133.552 161.091 137.043 161.091 141.31Z" fill="#FAFAFF"/>
<path d="M169.735 186.755L169.735 177.873C169.067 181.053 166.232 183.458 162.861 183.458L81.3003 183.458C83.654 178.71 86.0356 171.483 86.0356 161.673C86.0356 142.279 64.2538 130.401 64.2538 130.401L50.4631 131.264L50.4631 127.26C50.4641 126.381 50.632 125.51 50.9581 124.694L45.6146 124.694C41.348 124.694 37.857 128.185 37.857 132.452L37.857 186.755C37.857 191.022 41.348 194.513 45.6146 194.513L161.978 194.513C166.244 194.513 169.735 191.022 169.735 186.755Z" fill="#DDDDEB"/>
<path d="M164 126.376C166.781 126.376 169.043 128.638 169.043 131.419L169.043 185.722C169.043 188.502 166.781 190.764 164 190.764L47.6363 190.764C44.8559 190.764 42.5938 188.502 42.5938 185.722L42.5938 131.419C42.5955 130.082 43.1273 128.8 44.0725 127.855C45.0178 126.91 46.2994 126.378 47.6363 126.376L164 126.376ZM47.6363 120.946C41.8623 120.946 37.1635 125.645 37.1635 131.419L37.1635 185.722C37.1635 191.497 41.8623 196.195 47.6363 196.195L164 196.195C169.775 196.195 174.473 191.497 174.473 185.722L174.473 131.419C174.473 125.645 169.775 120.946 164 120.946L47.6363 120.946Z" fill="#6E6E96"/>
<path d="M46.9427 77.5972C39.5827 77.5972 32.524 80.521 27.3196 85.7254C22.1153 90.9298 19.1915 97.9884 19.1915 105.348C19.1915 112.709 22.1153 119.767 27.3196 124.972C32.524 130.176 39.5827 133.1 46.9427 133.1C54.3028 133.1 61.3614 130.176 66.5658 124.972C71.7702 119.767 74.694 112.709 74.694 105.348C74.694 97.9884 71.7702 90.9298 66.5658 85.7254C61.3615 80.521 54.3028 77.5972 46.9427 77.5972Z" fill="#C2C2CF"/>
<path d="M71.9788 105.348C71.9788 119.154 60.7466 130.385 46.9427 130.385C33.1389 130.385 21.9082 119.152 21.9082 105.348C21.9082 91.5446 33.1396 80.3124 46.9427 80.3124C60.7481 80.3124 71.9788 91.5438 71.9788 105.348ZM46.9427 74.8821C30.1437 74.8821 16.4771 88.5494 16.4771 105.348C16.4771 122.147 30.1437 135.815 46.9427 135.815C63.7418 135.815 77.4091 122.147 77.4091 105.348C77.4091 88.5494 63.7418 74.8821 46.9427 74.8821Z" fill="#6E6E96"/>
<path d="M46.9427 138.106C39.5827 138.106 32.524 141.03 27.3196 146.235C22.1153 151.439 19.1915 158.498 19.1915 165.858C19.1915 173.218 22.1153 180.276 27.3196 185.481C32.524 190.685 39.5827 193.609 46.9427 193.609C54.3028 193.609 61.3614 190.685 66.5658 185.481C71.7702 180.276 74.694 173.218 74.694 165.858C74.694 158.498 71.7702 151.439 66.5658 146.235C61.3615 141.03 54.3028 138.106 46.9427 138.106Z" fill="#C2C2CF"/>
<path d="M71.9788 165.858C71.9788 179.663 60.7466 190.894 46.9427 190.894C33.1389 190.894 21.9082 179.662 21.9082 165.858C21.9082 152.054 33.1396 140.822 46.9427 140.822C60.7481 140.822 71.9788 152.052 71.9788 165.858ZM46.9427 135.391C30.1437 135.391 16.4771 149.059 16.4771 165.858C16.4771 182.656 30.1437 196.324 46.9427 196.324C63.7418 196.324 77.4091 182.656 77.4091 165.858C77.4091 149.059 63.7418 135.391 46.9427 135.391Z" fill="#6E6E96"/>
<path d="M158.182 136.849L158.182 179.904L124.436 179.904L124.436 136.849L158.182 136.849Z" fill="#B0E4FF"/>
<path d="M46.6666 90.6913C42.706 90.6913 38.9076 92.2646 36.1071 95.0652C33.3065 97.8657 31.7332 101.664 31.7332 105.625C31.7332 109.585 33.3065 113.384 36.1071 116.184C38.9076 118.985 42.706 120.558 46.6666 120.558C50.6271 120.558 54.4255 118.985 57.226 116.184C60.0266 113.384 61.5999 109.585 61.5999 105.625C61.5999 101.664 60.0266 97.8657 57.226 95.0652C54.4255 92.2646 50.6271 90.6913 46.6666 90.6913Z" fill="#F0F0FF"/>
<path d="M46.6665 117.843C39.9291 117.843 34.4483 112.363 34.4483 105.625C34.4483 98.8872 39.9291 93.4064 46.6665 93.4064C53.4048 93.4064 58.8847 98.8872 58.8847 105.625C58.8847 112.362 53.4032 117.843 46.6665 117.843ZM64.3151 105.625C64.3151 95.8943 56.3984 87.9761 46.6665 87.9761C36.9354 87.9761 29.018 95.8935 29.018 105.625C29.018 115.357 36.9354 123.273 46.6665 123.273C56.3977 123.273 64.3151 115.354 64.3151 105.625Z" fill="#6E6E96"/>
<path d="M46.6666 151.249C42.706 151.249 38.9076 152.823 36.1071 155.623C33.3065 158.424 31.7332 162.222 31.7332 166.183C31.7332 170.143 33.3065 173.942 36.1071 176.742C38.9076 179.543 42.706 181.116 46.6666 181.116C50.6271 181.116 54.4255 179.543 57.226 176.742C60.0266 173.942 61.5999 170.143 61.5999 166.183C61.5999 162.222 60.0266 158.424 57.226 155.623C54.4255 152.823 50.6271 151.249 46.6666 151.249Z" fill="#F0F0FF"/>
<path d="M46.6665 178.401C39.9291 178.401 34.4483 172.92 34.4483 166.183C34.4483 159.445 39.9291 153.965 46.6665 153.965C53.4048 153.965 58.8847 159.445 58.8847 166.183C58.8847 172.92 53.4032 178.401 46.6665 178.401ZM64.3151 166.183C64.3151 156.452 56.3984 148.534 46.6665 148.534C36.9354 148.534 29.018 156.452 29.018 166.183C29.018 175.914 36.9354 183.831 46.6665 183.831C56.3977 183.831 64.3151 175.914 64.3151 166.183Z" fill="#6E6E96"/>
<path d="M49.5757 165.94L49.5757 106.594C49.5757 106.238 49.5056 105.885 49.3692 105.555C49.2328 105.226 49.0328 104.926 48.7807 104.674C48.5285 104.422 48.2292 104.222 47.8997 104.085C47.5702 103.949 47.2171 103.878 46.8605 103.878C46.5039 103.878 46.1507 103.949 45.8213 104.085C45.4918 104.222 45.1925 104.422 44.9403 104.674C44.6882 104.926 44.4882 105.226 44.3518 105.555C44.2154 105.885 44.1452 106.238 44.1453 106.594L44.1453 165.94C44.1452 166.297 44.2154 166.65 44.3518 166.979C44.4882 167.309 44.6882 167.608 44.9403 167.86C45.1925 168.112 45.4918 168.313 45.8213 168.449C46.1507 168.586 46.5039 168.656 46.8605 168.656C47.2171 168.656 47.5702 168.586 47.8997 168.449C48.2292 168.313 48.5285 168.112 48.7807 167.86C49.0328 167.608 49.2328 167.309 49.3692 166.979C49.5056 166.65 49.5757 166.297 49.5757 165.94Z" fill="#6E6E96"/>
<path opacity="0.95" d="M113.576 30.1821L113.576 107.37L102.327 107.37L102.327 19.3214C102.327 19.3214 113.576 19.3214 113.576 30.1821Z" fill="white"/>
<path opacity="0.15" d="M139.551 54.1011L139.551 59.3529L125.6 59.3529L125.6 54.1011L139.551 54.1011Z" fill="#6E6E96"/>
<path d="M157.406 44.2411L157.406 53.3253L149.261 53.3253L149.261 44.2411L157.406 44.2411Z" fill="white"/>
<path opacity="0.15" d="M139.551 47.5048L139.551 54.1011L134.947 54.1011L134.947 47.5048L139.551 47.5048ZM157.406 69.6162L157.406 60.5655L149.261 60.5655L149.261 37.5518L143.249 37.5518L143.249 61.0185L144.606 61.0185L144.606 69.6162L157.406 69.6162Z" fill="#6E6E96"/>
<path d="M150.023 67.9476C147.243 67.9476 144.981 65.6855 144.981 62.9051L144.981 43.4522C144.982 42.1154 145.514 40.8338 146.46 39.8885C147.405 38.9432 148.686 38.4114 150.023 38.4098L152.364 38.4098C155.145 38.4098 157.406 40.6719 157.406 43.4522L157.406 62.9044C157.406 65.6847 155.145 67.9468 152.364 67.9468L150.023 67.9476ZM150.024 73.3779L152.365 73.3771C158.138 73.3771 162.836 68.6791 162.836 62.9044L162.836 43.4522C162.836 37.6775 158.138 32.9795 152.364 32.9795L150.023 32.9795C144.249 32.9795 139.551 37.6775 139.551 43.4522L139.551 62.9051C139.551 68.6799 144.249 73.3779 150.024 73.3779Z" fill="#6E6E96"/>
<path opacity="0.15" d="M120.17 112.8L120.17 120.946L90.303 120.946L90.303 112.8L120.17 112.8Z" fill="#6E6E96"/>
<path opacity="0.57" d="M135.297 139.564L155.467 159.734L155.467 139.564L135.297 139.564Z" fill="white"/>
<path opacity="0.25" d="M127.152 139.564L156.63 169.043L155.467 177.188L127.152 148.873L127.152 139.564Z" fill="white"/>
<path d="M127.152 179.904L127.152 136.849C127.152 138.349 125.937 139.564 124.436 139.564L158.182 139.564C157.462 139.564 156.771 139.278 156.262 138.769C155.753 138.26 155.467 137.569 155.467 136.849L155.467 179.904C155.467 179.183 155.753 178.493 156.262 177.984C156.771 177.474 157.462 177.188 158.182 177.188L124.436 177.188C125.157 177.188 125.847 177.474 126.356 177.984C126.866 178.493 127.152 179.183 127.152 179.904ZM160.897 179.904L160.897 136.849C160.897 136.129 160.611 135.438 160.102 134.929C159.593 134.42 158.902 134.134 158.182 134.134L124.436 134.134C123.716 134.134 123.026 134.42 122.517 134.929C122.007 135.438 121.721 136.129 121.721 136.849L121.721 179.904C121.721 180.624 122.007 181.314 122.517 181.823C123.026 182.333 123.716 182.619 124.436 182.619L158.182 182.619C158.902 182.619 159.593 182.333 160.102 181.823C160.611 181.314 160.897 180.624 160.897 179.904ZM199.297 127.985L199.297 80.9873C199.297 46.677 172.304 49.3837 172.032 49.3837L171.37 49.3837L171.37 54.814L172.032 54.814C172.914 54.821 193.867 52.2214 193.867 80.9873L193.867 127.985C193.867 128.705 194.153 129.396 194.662 129.905C195.171 130.414 195.862 130.7 196.582 130.7C197.302 130.7 197.993 130.414 198.502 129.905C199.011 129.396 199.297 128.705 199.297 127.985Z" fill="#6E6E96"/>
<path d="M90.303 133.552L115.903 159.152L115.903 133.552L90.303 133.552Z" fill="#FAFAFF"/>
<path d="M120.179 28.6306L120.179 34.0609L74.7871 34.0609L74.7871 28.6306L120.179 28.6306ZM112.412 170.207L112.412 182.682L106.982 182.682L106.982 170.207L112.412 170.207Z" fill="#6E6E96"/>
</g>
<defs>
<clipPath id="clip0_1_192">
<rect width="200" height="200" fill="white" transform="translate(200 7.62939e-06) rotate(90)"/>
</clipPath>
</defs>
</svg>
