<svg width="200" height="200" viewBox="0 0 200 200" fill="none" xmlns="http://www.w3.org/2000/svg">
<path d="M133.625 44.5312C133.625 48.5918 135.414 52.2402 138.25 54.7363C135.414 57.2305 133.625 60.8809 133.625 64.9414C133.625 72.4434 139.729 78.5469 147.234 78.5469C154.74 78.5469 160.838 72.4434 160.838 64.9414C160.838 60.8809 159.049 57.2305 156.219 54.7363C159.049 52.2402 160.838 48.5918 160.838 44.5312C160.838 37.0273 154.738 30.9219 147.234 30.9219C139.73 30.9219 133.625 37.0254 133.625 44.5312Z" fill="#CCD1D9"/>
<path d="M144.826 62.5352C146.156 61.207 148.309 61.207 149.641 62.5352C150.965 63.8652 150.965 66.0176 149.641 67.3457C148.311 68.6738 146.156 68.6738 144.826 67.3457C143.5 66.0176 143.5 63.8652 144.826 62.5352ZM144.826 42.1231C146.156 40.7949 148.309 40.7949 149.641 42.1231C150.965 43.4531 150.965 45.6055 149.641 46.9336C148.311 48.2617 146.156 48.2617 144.826 46.9336C143.5 45.6074 143.5 43.4551 144.826 42.1231Z" fill="#434A54"/>
<path d="M99.6055 20.7168L99.6055 42.498C99.6055 44.377 101.131 45.9023 103.01 45.9023L116.619 45.9023C118.498 45.9023 120.018 44.377 120.018 42.498L120.018 20.7168C120.018 18.8379 118.498 17.3164 116.619 17.3164L103.01 17.3164C101.129 17.3145 99.6055 18.8379 99.6055 20.7168Z" fill="#FFCE54"/>
<path d="M72.3926 47.9316L72.3926 81.9492C72.3926 87.5781 67.8125 92.1543 62.1875 92.1543C60.9961 92.1543 59.8496 91.9492 58.7832 91.5703L58.7832 170.396C58.7832 176.025 54.209 180.602 48.5781 180.602C42.9531 180.602 38.373 176.025 38.373 170.396L38.373 54.7363C38.373 49.1074 42.9531 44.5312 48.5781 44.5312C49.9082 44.5312 51.1738 44.7852 52.3398 45.248C53.5215 40.918 57.4883 37.7266 62.1855 37.7266C67.8125 37.7266 72.3926 42.3027 72.3926 47.9316Z" fill="#E6E9ED"/>
<path d="M79.1934 47.9316L79.1934 61.5371C79.1934 63.416 80.7187 64.9414 82.5977 64.9414L103.008 64.9414C104.887 64.9414 106.412 63.416 106.412 61.5371L106.412 47.9316C106.412 46.0527 104.887 44.5312 103.008 44.5312L82.5977 44.5312C80.7187 44.5312 79.1934 46.0527 79.1934 47.9316Z" fill="#434A54"/>
<path d="M147.084 143.18L147.084 163.59C147.084 165.469 145.559 166.994 143.68 166.994L82.5977 166.994C80.7187 166.994 79.1934 165.469 79.1934 163.59L79.1934 143.18C79.1934 141.301 80.7187 139.779 82.5977 139.779L143.68 139.779C145.559 139.779 147.084 141.303 147.084 143.18Z" fill="#F6BB42"/>
<path d="M99.6055 41.127L99.6055 108.467C99.6055 117.846 107.24 125.475 116.617 125.475L130.221 125.475C139.604 125.475 147.232 117.846 147.232 108.467L147.232 41.1269C147.232 31.748 139.604 24.1192 130.221 24.1192L116.617 24.1192C107.238 24.1192 99.6055 31.748 99.6055 41.127Z" fill="#656D78"/>
<path d="M79.1934 102.359L79.1934 143.18C79.1934 145.059 80.7187 146.584 82.5977 146.584L143.68 146.584C145.559 146.584 147.084 145.059 147.084 143.18L147.084 102.357C147.084 100.479 145.559 98.957 143.68 98.957L82.5977 98.957C80.7187 98.959 79.1934 100.48 79.1934 102.359Z" fill="#FFCE54"/>
<path d="M133.625 95.5566C133.625 103.059 139.729 109.162 147.234 109.162C154.74 109.162 160.838 103.059 160.838 95.5566C160.838 88.0527 154.738 81.9473 147.234 81.9473C139.73 81.9473 133.625 88.0527 133.625 95.5566ZM133.625 122.77C133.625 130.273 139.729 136.379 147.234 136.379C154.74 136.379 160.838 130.275 160.838 122.77C160.838 115.268 154.738 109.164 147.234 109.164C139.73 109.164 133.625 115.268 133.625 122.77ZM133.625 149.984C133.625 157.486 139.729 163.59 147.234 163.59C154.74 163.59 160.838 157.486 160.838 149.984C160.838 142.482 154.738 136.379 147.234 136.379C139.73 136.379 133.625 142.482 133.625 149.984Z" fill="#E6E9ED"/>
<path d="M150.631 95.5566L150.631 149.984C150.631 151.863 149.111 153.385 147.232 153.385C145.354 153.385 143.828 151.863 143.828 149.984L143.828 95.5566C143.828 93.6777 145.354 92.1523 147.232 92.1523C149.111 92.1543 150.631 93.6777 150.631 95.5566Z" fill="#434A54"/>
<path d="M99.6055 163.592C99.6055 161.713 98.0859 160.191 96.207 160.191C94.3281 160.191 92.8027 161.713 92.8027 163.592L92.8027 166.996L99.6055 166.996L99.6055 163.592ZM113.213 163.592C113.213 161.713 111.693 160.191 109.809 160.191C107.93 160.191 106.41 161.713 106.41 163.592L106.41 166.996L113.213 166.996L113.213 163.592ZM126.822 163.592C126.822 161.713 125.297 160.191 123.418 160.191C121.539 160.191 120.014 161.713 120.014 163.592L120.014 166.996L126.82 166.996L126.82 163.592L126.822 163.592Z" fill="#FFCE54"/>
<path d="M82.5977 98.959C80.7187 98.959 79.1934 100.48 79.1934 102.359L79.1934 143.18C79.1934 145.059 80.7187 146.584 82.5977 146.584L99.6055 146.584L99.6055 98.959L82.5977 98.959Z" fill="#4FC2E9"/>
<path d="M79.1934 126.174L79.1934 119.369L99.6035 119.369L99.6035 126.174L79.1934 126.174Z" fill="#3BAFDA"/>
</svg>
